<svg xmlns="http://www.w3.org/2000/svg" width="1220" height="133"><defs><filter id="a" width="144.4" height="125.4" x="161" y="18" filterUnits="userSpaceOnUse"><feOffset dx="1.4" dy="1.4" in="SourceGraphic" result="FeOffset1048Out"/><feGaussianBlur in="FeOffset1048Out" result="FeGaussianBlur1049Out" stdDeviation="1.6 1.6"/></filter><filter id="c" width="144.4" height="125.4" x="916" y="18" filterUnits="userSpaceOnUse"><feOffset dx="1.4" dy="1.4" in="SourceGraphic" result="FeOffset1064Out"/><feGaussianBlur in="FeOffset1064Out" result="FeGaussianBlur1065Out" stdDeviation="1.6 1.6"/></filter><filter id="e" width="787.1" height="161.1" x="220" y="-20" filterUnits="userSpaceOnUse"><feOffset dx="7.1" dy="7.1" in="SourceGraphic" result="FeOffset1090Out"/><feGaussianBlur in="FeOffset1090Out" result="FeGaussianBlur1091Out" stdDeviation="8 8"/></filter><mask id="b" width="2" height="2" x="-1" y="-1"><path fill="#fff" d="M175 32h115v96H175z"/><path d="M175 32h115v96H175l50-48z"/></mask><mask id="d" width="2" height="2" x="-1" y="-1"><path fill="#fff" d="M930 32h115v96H930z"/><path d="M1045 32H930v96h115l-50-48z"/></mask><mask id="f" width="2" height="2" x="-1" y="-1"><path fill="#fff" d="M250 10h720v94H250z"/><path d="M250 10h720v94H250z"/></mask></defs><g filter="url(#a)"><path fill="none" d="M175 32h115v96H175l50-48z" mask="url(&quot;#b&quot;)"/><path fill-opacity=".3" d="M175 32h115v96H175l50-48z"/></g><path fill="#fff1ce" d="M175 32h115v96H175l50-48z"/><g filter="url(#c)"><path fill="none" d="M1045 32H930v96h115l-50-48z" mask="url(&quot;#d&quot;)"/><path fill-opacity=".3" d="M1045 32H930v96h115l-50-48z"/></g><path fill="#fff1ce" d="M1045 32H930v96h115l-50-48z"/><path fill="#849092" d="M250 104h40v24zm680 0h40l-40 24z"/><g filter="url(#e)"><path fill="none" d="M250 10h720v94H250z" mask="url(&quot;#f&quot;)"/><path fill-opacity=".3" d="M250 10h720v94H250z"/></g><path fill="#fff1ce" d="M250 10h720v94H250zm-94 64a6 6 0 110 12 6 6 0 010-12zm-50 0a6 6 0 110 12 6 6 0 010-12zm-50 0a6 6 0 110 12 6 6 0 010-12zM6 74a6 6 0 110 12 6 6 0 010-12zm1208 0a6 6 0 110 12 6 6 0 010-12zm-50 0a6 6 0 110 12 6 6 0 010-12zm-50 0a6 6 0 110 12 6 6 0 010-12zm-50 0a6 6 0 110 12 6 6 0 010-12z"/></svg>