<svg xmlns="http://www.w3.org/2000/svg" viewBox="0 0 64 64"><style>.st0{display:none}.st2{fill:none;stroke:#4c5159;stroke-width:2;stroke-miterlimit:10}.st2,.st3{display:inline}.st4,.st6,.st7{fill:none;stroke:#4c5159;stroke-width:2;stroke-miterlimit:10}.st6,.st7{display:inline}.st6{stroke-linecap:round}.st7{stroke-dasharray:1.9857,1.9857}.st8{fill:#4c5159}.st9{font-family:&apos;Montserrat-Bold&apos;}.st10{font-size:7px}</style><g id="bg" class="st0"><path id="XMLID_119_" display="inline" fill="#fff" d="M-218-268.2h500v600.3h-500z"/></g><g id="icons"><g id="XMLID_2_" class="st0"><path id="XMLID_153_" class="st2" d="M14.4 53.3v-7.1c0-.9.6-1.6 1.4-1.9L27 40.5v-4.3"/><path id="XMLID_157_" class="st2" d="M49.6 53.3v-7.1c0-.9-.6-1.6-1.4-1.9L37 40.5v-4.3"/><path id="XMLID_8_" class="st2" d="M22 25.5l.1.3c.2.9 1 1.6 1.9 1.7l.4 4.5c.1 1.4.9 2.6 2.1 3.3l4.1 2.7h2.7l4.3-2.7c1.2-.6 2-1.9 2.1-3.3l.4-4.5c.8-.2 1.4-.9 1.6-1.7l.1-.3c.2-.9-.4-1.8-1.3-1.9l.1-3.8"/><path id="XMLID_7_" class="st2" d="M27 40.5l3.2 3.6H34l3.2-3.6"/><path id="XMLID_175_" class="st2" d="M44.5 10.7v3.8c0 2-1.7 3.7-3.7 3.7H26.1c-1 0-1.8.8-1.8 1.8v3.4c0 .2-.2.4-.4.4h-1.8c-.2 0-.4-.2-.4-.4v-8c.4-1.3 1.7-1.3 2.3-1.2.2 0 .3-.1.3-.3.2-1.9 1.8-3.3 3.7-3.3h16.5z"/></g><g id="XMLID_17_" class="st0"><path id="XMLID_70_" class="st2" d="M14.4 54.6v-6.1c0-.9.6-1.6 1.4-1.9L27 42.7v-4.3"/><path id="XMLID_68_" class="st2" d="M49.6 54.6v-6.1c0-.9-.6-1.6-1.4-1.9L37 42.7v-4.3"/><path id="XMLID_13_" class="st2" d="M40.6 23l-.1 2.8c.9.1 1.5 1 1.3 1.9l-.1.3c-.2.8-.8 1.4-1.6 1.7l-.4 4.5c-.1 1.4-.9 2.6-2.1 3.3l-4.3 2.7h-2.7l-4.1-2.7c-1.2-.6-2-1.9-2.1-3.3l-.4-4.4c-.9-.2-1.6-.8-1.9-1.7l-.1-.4c-.2-1 .5-1.9 1.5-1.9h.1l-.1-2.8h9.9c2.5 0 4.5-2 4.5-4.5"/><path id="XMLID_59_" class="st2" d="M27 42.7l4.2 10h1.6l4.2-10"/><path id="XMLID_15_" class="st2" d="M43.4 25.1v-4.3c0-6.3-5.1-11.4-11.4-11.4-6.3 0-11.4 5.1-11.4 11.4v4.3"/><path id="XMLID_16_" class="st2" d="M20.6 30.7v14"/><path id="XMLID_14_" class="st2" d="M43.4 31.1v14"/></g><g id="XMLID_44_" class="st0"><g id="XMLID_40_" class="st3"><path id="XMLID_25_" class="st4" d="M28.7 12.7h8c2.2 0 4.2 1.2 5.3 3.1l6 10.8c.2.4.4.8.4 1.3l2.9 22.5c.2 1.3-.8 2.4-2.1 2.4-.9 0-1.8-.6-2.1-1.5l-5.8-19.1c-.1-.4-.8-.5-.9 0l-2 6c-.5 1-1.4 1.1-2.5 1.1-1.3 0-2.5-.5-2.7-1.8l-1.7-12.1h-2.7"/><path id="XMLID_29_" class="st4" d="M14.3 10.1h11.5c.2 0 .4.2.4.4v19.6c0 .2-.2.4-.4.4H14.3"/><path id="XMLID_36_" class="st4" d="M42.4 36l-.4 3.7c-.1.7-.3 1.3-.8 1.8l-5.9 6.4c-.7.8-.8 1.9-.2 2.8.8 1.2 2.5 1.3 3.5.3l6.3-6.5"/></g><path id="XMLID_48_" display="inline" fill="none" stroke="#4c5159" stroke-width="2" stroke-miterlimit="10" stroke-dasharray="2" d="M12.7 53.9h23.7"/></g><g id="XMLID_50_" class="st0"><path id="XMLID_77_" class="st2" d="M35.1 43.2v7.5c0 1.2-.9 2.1-2.1 2.1H12.5c-1.2 0-2.1-.9-2.1-2.1V13.3c0-1.2.9-2.1 2.1-2.1H33c1.2 0 2.1.9 2.1 2.1v6.8"/><path id="XMLID_54_" class="st2" d="M10.4 17.5h24.7"/><path id="XMLID_53_" class="st2" d="M18.8 14.5h7.9"/><path id="XMLID_52_" class="st2" d="M10.4 46.5h24.7"/><path id="XMLID_65_" class="st2" d="M37.4 37.7c0 .9-.4 1.7-1 2.3-.6.6-1.4 1-2.3 1-.9 0-1.7-.4-2.3-1s-1-1.4-1-2.3.4-1.7 1-2.3c.6-.6 1.4-1 2.3-1 .9 0 1.7.4 2.3 1 .6.6 1 1.4 1 2.3z"/><path id="XMLID_66_" class="st2" d="M37.4 25.7c0 .9-.4 1.7-1 2.3-.6.6-1.4 1-2.3 1-.9 0-1.7-.4-2.3-1-.6-.6-1-1.4-1-2.3s.4-1.7 1-2.3c.6-.6 1.4-1 2.3-1 .9 0 1.7.4 2.3 1 .6.6 1 1.4 1 2.3z"/><path id="XMLID_71_" class="st2" d="M25.8 31.7c0 .9-.4 1.7-1 2.3-.6.6-1.4 1-2.3 1-.9 0-1.7-.4-2.3-1-.6-.6-1-1.4-1-2.3 0-.9.4-1.7 1-2.3.6-.6 1.4-1 2.3-1 .9 0 1.7.4 2.3 1 .7.6 1 1.4 1 2.3z"/><path id="XMLID_75_" class="st2" d="M25.3 30l6-2.5"/><path id="XMLID_76_" class="st2" d="M25.3 33.5l6 2.5"/><path id="XMLID_73_" class="st2" d="M53.3 22.3H41.4c-.1 0-.2-.1-.2-.2v-9.6c0-.1.1-.2.2-.2h11.9c.1 0 .2.1.2.2v9.6c.1.1 0 .2-.2.2z"/><path id="XMLID_79_" class="st2" d="M53.3 36.3H41.4c-.1 0-.2-.1-.2-.2v-9.6c0-.1.1-.2.2-.2h11.9c.1 0 .2.1.2.2v9.6c.1.1 0 .2-.2.2z"/><path id="XMLID_80_" class="st2" d="M53.3 50.3H41.4c-.1 0-.2-.1-.2-.2v-9.6c0-.1.1-.2.2-.2h11.9c.1 0 .2.1.2.2v9.6c.1.1 0 .2-.2.2z"/><path id="XMLID_423_" class="st2" d="M49.7 17.4L45.1 20c-.1 0-.2 0-.2-.1v-5.3c0-.1.1-.2.2-.1l4.6 2.7c.1 0 .1.1 0 .2L45.1 20c-.1 0-.2 0-.2-.1v-5.3c0-.1.1-.2.2-.1l4.6 2.7c.1 0 .1.1 0 .2z"/><path id="XMLID_81_" class="st2" d="M41.2 33.7h3.7l2.1-2.1 2.2 1.9h4.4"/><path id="XMLID_85_" class="st2" d="M49 29h2.2"/><path id="XMLID_86_" class="st2" d="M43.2 47h2v-3.5h4.3V47h-2.1"/></g><g id="XMLID_64_"><g id="XMLID_57_"><circle id="XMLID_212_" class="st4" cx="31.6" cy="36.8" r="13.6"/><g id="XMLID_56_"><g id="XMLID_206_"><path id="XMLID_210_" class="st4" d="M24.5 44.7V41c0-.3.2-.7.5-.8l4.5-1.5v-2.5"/><path id="XMLID_209_" class="st4" d="M38.5 44.7V41c0-.3-.2-.7-.5-.8l-4.5-1.5v-2.5"/><path id="XMLID_208_" class="st4" d="M34.9 30.5c0-1.9-1.5-3.4-3.4-3.4s-3.4 1.5-3.4 3.4l.3 4.1c0 .5.4 1 .9 1.3l1.6 1.1H32l1.7-1.1c.5-.3.8-.7.9-1.3l.3-4.1z"/><path id="XMLID_207_" class="st4" d="M29.5 38.7l1.3 1.5h1.5l1.3-1.5"/></g><path id="XMLID_214_" class="st4" d="M20.7 44.7h21.8"/></g><path id="XMLID_258_" class="st4" d="M44.6 53.7l-3.3-3.2 2.3-2.4 3.3 3.3"/><path id="XMLID_266_" class="st4" d="M40.2 47.1l1.9 1.8"/></g><g id="XMLID_58_"><path id="XMLID_255_" class="st4" d="M11.1 53.7V10.5c0-.1.1-.2.2-.2h41.4c.1 0 .2.1.2.2v43.3"/><path id="XMLID_254_" class="st4" d="M11.1 18.5h41.8"/><path id="XMLID_253_" class="st4" d="M14.1 14.2h2.8"/><path id="XMLID_252_" class="st4" d="M19.3 14.2h2.8"/><path id="XMLID_251_" class="st4" d="M24.5 14.2h2.9"/></g></g><g id="XMLID_99_" class="st0"><g id="XMLID_97_" class="st3"><g id="XMLID_2368_"><g id="XMLID_2375_"><path id="XMLID_92_" class="st4" d="M34.5 29.3c0-5.8 4.7-10.5 10.5-10.5s10.5 4.7 10.5 10.5S50.8 39.8 45 39.8"/></g><path id="XMLID_89_" class="st4" d="M40.2 32.7H50"/><path id="XMLID_90_" class="st4" d="M43.2 32.7v2.6c0 1 .8 1.8 1.8 1.8s1.8-.8 1.8-1.8v-2.6"/><path id="XMLID_91_" class="st4" d="M40.5 27.5h1.7"/><path id="XMLID_88_" class="st4" d="M47.5 27.5h1.7"/></g><g id="XMLID_2361_"><g id="XMLID_2367_"><path id="XMLID_93_" class="st4" d="M19.7 45.2c-6.2 0-11.2-5-11.2-11.2 0-6.2 5-11.2 11.2-11.2 4.5 0 8.4 2.7 10.2 6.5"/></g><g id="XMLID_2366_"><path id="XMLID_94_" class="st4" d="M19.3 42.2c-2.3 0-4.2-1.9-4.2-4.2l5.6-.5"/></g><g id="XMLID_2363_"><path id="XMLID_1189_" class="st4" d="M17.7 31.1c0-1-.8-1.7-1.7-1.7-.5 0-.9.2-1.2.5-.3-.3-.8-.5-1.2-.5-1 0-1.7.8-1.7 1.7 0 .5.2.9.5 1.2l2.5 2.5 2.5-2.5.1-.1c.1-.4.2-.7.2-1.1z"/></g><g id="XMLID_2362_"><path id="XMLID_903_" class="st4" d="M27.2 31.1c0-1-.8-1.7-1.7-1.7-.5 0-.9.2-1.2.5-.3-.3-.8-.5-1.2-.5-1 0-1.7.8-1.7 1.7 0 .5.2.9.5 1.2l2.5 2.5 2.5-2.5.1-.1c.1-.3.2-.7.2-1.1z"/></g></g><g id="XMLID_2376_"><g id="XMLID_2382_"><circle id="XMLID_1199_" class="st4" cx="32.2" cy="42.1" r="10.1"/></g><g id="XMLID_82_"><path id="XMLID_84_" class="st4" d="M27.3 39.6c.5-.5 1.1-.7 1.8-.7s1.3.3 1.8.7"/></g><g id="XMLID_83_"><path id="XMLID_87_" class="st4" d="M33.8 39.6c.5-.5 1.1-.7 1.8-.7s1.3.3 1.8.7"/></g><g id="XMLID_2379_"><path id="XMLID_1198_" class="st4" d="M36.7 44.4c0 2.5-2 4.5-4.5 4.5s-4.5-2-4.5-4.5h9z"/></g></g></g><path id="XMLID_102_" class="st2" d="M31.5 11.8V17"/><path id="XMLID_101_" class="st2" d="M38.1 13l-1.8 4.8"/><path id="XMLID_117_" class="st2" d="M19.1 16.4l3.3 3.9"/><path id="XMLID_118_" class="st2" d="M24.9 13l1.8 4.8"/></g><g id="XMLID_132_" class="st0"><path id="XMLID_126_" class="st2" d="M39.2 52.9h-5.9c-.7 0-1.3-.3-1.8-.8l-2.6-2.7c-.4-.4-.9-.6-1.5-.6h-1.6"/><path id="XMLID_127_" class="st2" d="M38.7 32.7h-2.3s2.2-5.5 2.2-8c0-1.2.3-3.6-.5-4.7-.3-.5-2.4-.5-2.7 0 0 0-2 6.2-3.3 8-.7 1-3.6 4.8-3.6 4.8h-1.7"/><path id="XMLID_302_" class="st2" d="M11.6 29.9h14.3c.2 0 .3.1.3.3V52c0 .2-.1.3-.3.3H11.6"/><path id="XMLID_312_" class="st2" d="M36.1 12.1v2.5"/><path id="XMLID_311_" class="st2" d="M41.9 11.1l-2.6 4.4"/><path id="XMLID_313_" class="st2" d="M44 16.6l-2.2 1.3"/><path id="XMLID_314_" class="st2" d="M47.6 21.2h-5"/><path id="XMLID_315_" class="st2" d="M43.9 25.7l-2.2-1.2"/><path id="XMLID_319_" class="st2" d="M28.1 25.7l2.2-1.3"/><path id="XMLID_322_" class="st2" d="M24.5 21.1h5"/><path id="XMLID_325_" class="st2" d="M28.1 16.6l2.3 1.2"/><path id="XMLID_327_" class="st2" d="M30.3 11.1l2.5 4.3"/><path id="XMLID_125_" class="st2" d="M48.4 37.8H43c-1.4 0-2.5-1.1-2.5-2.5s1.1-2.5 2.5-2.5h5.3c1.4 0 2.5 1.1 2.5 2.5.1 1.3-1 2.5-2.4 2.5z"/><path id="XMLID_129_" class="st2" d="M48.4 47.9H43c-1.4 0-2.5-1.1-2.5-2.5s1.1-2.5 2.5-2.5h5.3c1.4 0 2.5 1.1 2.5 2.5.1 1.3-1 2.5-2.4 2.5z"/><path id="XMLID_130_" class="st2" d="M46.5 52.9H43c-1.4 0-2.5-1.1-2.5-2.5s1.1-2.5 2.5-2.5h3.5c1.4 0 2.5 1.1 2.5 2.5s-1.1 2.5-2.5 2.5z"/><path id="XMLID_128_" class="st2" d="M49.9 42.8H43c-1.4 0-2.5-1.1-2.5-2.5s1.1-2.5 2.5-2.5h6.9c1.4 0 2.5 1.1 2.5 2.5s-1.1 2.5-2.5 2.5z"/><path id="XMLID_131_" class="st2" d="M32.2 38.1c0 2.9-2.3 5.2-5.2 5.2"/></g><g id="XMLID_107_" class="st0"><path id="XMLID_108_" class="st2" d="M33.2 33.5l-2.5-1.3c-.2-.1-.4-.1-.5 0L22 36.6c-.4.2-.9-.1-.8-.6l1.5-9.2c0-.2 0-.4-.2-.5L15.7 20c-.3-.3-.2-.9.3-.9l9.2-1.5c.2 0 .3-.1.4-.3l4-8.4c.2-.4.8-.4 1 0l4.2 8.3c.1.2.2.3.4.3l9.2 1.2c.5.1.6.6.3.9L43 21.4"/><g id="XMLID_105_" class="st3"><path id="XMLID_394_" class="st4" d="M39.2 38.4V28.2c0-.8-.7-1.5-1.5-1.5s-1.5.7-1.5 1.5v12.5"/><path id="XMLID_393_" class="st4" d="M42.3 35.7V33c0-.8-.7-1.5-1.5-1.5s-1.5.7-1.5 1.5v2.6"/><path id="XMLID_392_" class="st4" d="M45.4 38.4v-3.7c0-.8-.7-1.5-1.5-1.5s-1.5.7-1.5 1.5v3.7"/><path id="XMLID_106_" class="st4" d="M45.4 37.7v-1.4c0-.8.7-1.5 1.5-1.5s1.5.7 1.5 1.5V45c0 .4-.2.8-.4 1.1l-1.6 1.5c-.2.2-.4.6-.4.9"/><path id="XMLID_104_" class="st4" d="M36.2 37.8H34c-.6 0-1 .5-1 1v6.8c0 .5.3 1 .8 1.3l1.3.6c.5.2.8.7.8 1.3"/><path id="XMLID_388_" class="st4" d="M34.5 55.4v-6.2h13.1v6.2"/><path id="XMLID_378_" class="st4" d="M37.7 20.6v1.7"/><path id="XMLID_377_" class="st4" d="M40.9 21.4l-.9 1.5"/><path id="XMLID_376_" class="st4" d="M43.1 23.7l-1.5.9"/><path id="XMLID_375_" class="st4" d="M43.9 26.9h-1.7"/><path id="XMLID_374_" class="st4" d="M43 30l-1.5-.9"/><path id="XMLID_373_" class="st4" d="M32.2 29.7l1.5-.8"/><path id="XMLID_372_" class="st4" d="M31.5 26.5l1.7.1"/><path id="XMLID_371_" class="st4" d="M32.5 23.4l1.5 1"/><path id="XMLID_370_" class="st4" d="M34.9 21.2l.8 1.6"/></g></g><g id="XMLID_115_" class="st0"><path id="XMLID_142_" class="st2" d="M41.6 32.6H48c1 0 1.8.8 1.8 1.8v17.5c0 1-.8 1.8-1.8 1.8H16.1c-1 0-1.8-.8-1.8-1.8V34.3c0-1 .8-1.8 1.8-1.8h5.8"/><path id="XMLID_141_" class="st2" d="M19.6 53.6v-21"/><path id="XMLID_140_" class="st2" d="M17.1 46.5v-6.8"/><path id="XMLID_139_" class="st2" d="M44.4 53.6v-21"/><path id="XMLID_112_" class="st2" d="M22.5 29.6h-6.8c-.1 0-.2-.1-.2-.2V12.9c0-.1.1-.2.2-.2h6.8"/><path id="XMLID_111_" class="st2" d="M39.8 30.1v6.7c0 .3-.4.4-.6.2l-3.7-3.6"/><path id="XMLID_286_" class="st2" d="M24.5 10.7v17.6c0 .2.1.3.3.3h4.1v7.2c0 .3.4.5.6.2l7.7-7.4h11.7c.2 0 .3-.1.3-.3V10.7c0-.2-.1-.3-.3-.3H24.8c-.1 0-.3.1-.3.3z"/><path id="XMLID_113_" class="st2" d="M28.4 14.9h17"/><path id="XMLID_110_" class="st2" d="M28.4 19.8h17"/><path id="XMLID_114_" class="st2" d="M28.4 24.7h9.3"/><path id="XMLID_120_" class="st2" d="M21.7 42.1H24"/><path id="XMLID_116_" class="st2" d="M26.2 42.1h2.3"/><path id="XMLID_121_" class="st2" d="M30.7 42.1h2.4"/><path id="XMLID_122_" class="st2" d="M35.3 42.1h2.3"/><path id="XMLID_123_" class="st2" d="M39.8 42.1h2.4"/><path id="XMLID_146_" class="st2" d="M21.7 46.1H24"/><path id="XMLID_145_" class="st2" d="M26.2 46.1h2.3"/><path id="XMLID_143_" class="st2" d="M30.7 46.1h2.4"/><path id="XMLID_137_" class="st2" d="M35.3 46.1h2.3"/><path id="XMLID_135_" class="st2" d="M39.8 46.1h2.4"/><path id="XMLID_152_" class="st2" d="M21.7 50.1H24"/><path id="XMLID_150_" class="st2" d="M26.5 50.1h11.1"/><path id="XMLID_147_" class="st2" d="M39.8 50.1h2.4"/></g><g id="XMLID_203_" class="st0"><g id="XMLID_202_" class="st3"><path id="XMLID_227_" class="st4" d="M40.9 23.3c0 .6-.3 1.2-.7 1.6-.4.4-1 .7-1.6.7s-1.2-.3-1.6-.7c-.4-.4-.7-1-.7-1.6 0-.6.3-1.2.7-1.6.4-.4 1-.7 1.6-.7s1.2.3 1.6.7.7 1 .7 1.6z"/><path id="XMLID_226_" class="st4" d="M40.9 14.9c0 .6-.3 1.2-.7 1.6s-1 .7-1.6.7-1.2-.3-1.6-.7c-.4-.4-.7-1-.7-1.6 0-.6.3-1.2.7-1.6.4-.4 1-.7 1.6-.7s1.2.3 1.6.7.7 1 .7 1.6z"/><path id="XMLID_224_" class="st4" d="M32.9 19.1c0 .6-.3 1.2-.7 1.6-.4.4-1 .7-1.6.7-.6 0-1.2-.3-1.6-.7-.4-.4-.7-1-.7-1.6 0-.6.3-1.2.7-1.6.4-.4 1-.7 1.6-.7.6 0 1.2.3 1.6.7.4.4.7 1 .7 1.6z"/><path id="XMLID_223_" class="st4" d="M32.5 17.9l4.2-1.8"/><path id="XMLID_222_" class="st4" d="M32.5 20.3l4.2 1.8"/></g><path id="XMLID_213_" class="st2" d="M35.4 42.2l-5.6 3.2c-.1.1-.2 0-.2-.1v-6.5c0-.1.1-.2.2-.1l5.6 3.2c.1.1.1.3 0 .3l-5.6 3.2c-.1.1-.2 0-.2-.1v-6.5c0-.1.1-.2.2-.1l5.6 3.2c.1.1.1.3 0 .3z"/><path id="XMLID_262_" class="st2" d="M36.6 32.6H48c1 0 1.8.8 1.8 1.8v17.5c0 1-.8 1.8-1.8 1.8H16.1c-1 0-1.8-.8-1.8-1.8V34.3c0-1 .8-1.8 1.8-1.8h8.8"/><path id="XMLID_261_" class="st2" d="M19.6 53.6v-21"/><path id="XMLID_260_" class="st2" d="M17.1 46.5v-6.8"/><path id="XMLID_259_" class="st2" d="M44.4 53.6v-21"/><path id="XMLID_250_" class="st2" d="M23.5 10.7v17.6c0 .2.1.3.3.3h4.1v7.2c0 .3.4.5.6.2l7.7-7.4h11.7c.2 0 .3-.1.3-.3V10.7c0-.2-.1-.3-.3-.3H23.8c-.1 0-.3.1-.3.3z"/><path id="XMLID_211_" class="st2" d="M22.6 49.4h7"/><path id="XMLID_205_" class="st2" d="M32.6 49.4H31"/><path id="XMLID_219_" class="st2" d="M35.1 49.4h-1.6"/><path id="XMLID_221_" class="st2" d="M37.6 49.4H36"/><path id="XMLID_229_" class="st2" d="M40.1 49.4h-1.6"/><path id="XMLID_217_" class="st2" d="M29.1 51.4v-3.8"/></g><g id="XMLID_182_" class="st0"><path id="XMLID_181_" class="st2" d="M45.8 54.1h7.6c.1 0 .2-.1.2-.2V28.1c0-2.3-1.8-4.1-4.1-4.1V9.9h-4.9V24c-2.3 0-4.1 1.8-4.1 4.1"/><path id="XMLID_503_" class="st2" d="M42.4 13.6h9.3"/><path id="XMLID_502_" class="st2" d="M42.4 16.7h9.3"/><path id="XMLID_512_" class="st2" d="M53.6 34.5h-6.9v12.4h6.9"/><path id="XMLID_514_" class="st2" d="M49.8 37.8h3.1"/><path id="XMLID_504_" class="st2" d="M49.8 40.6h3.1"/><path id="XMLID_515_" class="st2" d="M49.8 43.3h3.1"/><g id="XMLID_180_" class="st3"><path id="XMLID_134_" class="st4" d="M33.3 54.1H10.6c-.1 0-.2-.1-.2-.2V34.7c0-.1.1-.2.2-.2h22.7c.1 0 .2.1.2.2v19.2c0 .1-.1.2-.2.2z"/><path id="XMLID_151_" class="st4" d="M10.4 39.6h23.1"/><path id="XMLID_154_" class="st4" d="M13.1 42.9h2.2"/><path id="XMLID_138_" class="st4" d="M17 42.9h2.1"/><path id="XMLID_155_" class="st4" d="M20.9 42.9H23"/><path id="XMLID_156_" class="st4" d="M24.8 42.9h2.1"/><path id="XMLID_158_" class="st4" d="M28.6 42.9h2.2"/><path id="XMLID_166_" class="st4" d="M13.1 46.9h2.2"/><path id="XMLID_163_" class="st4" d="M17 46.9h2.1"/><path id="XMLID_162_" class="st4" d="M20.9 46.9H23"/><path id="XMLID_161_" class="st4" d="M24.8 46.9h2.1"/><path id="XMLID_160_" class="st4" d="M28.6 46.9h2.2"/><path id="XMLID_173_" class="st4" d="M13.1 50.9h2.2"/><path id="XMLID_172_" class="st4" d="M17 50.9h2.1"/><path id="XMLID_171_" class="st4" d="M20.9 50.9H23"/><path id="XMLID_170_" class="st4" d="M24.8 50.9h2.1"/><path id="XMLID_168_" class="st4" d="M28.6 50.9h2.2"/><path id="XMLID_176_" class="st4" d="M14.7 31.3v5.6"/><path id="XMLID_174_" class="st4" d="M19.5 31.3v5.6"/><path id="XMLID_177_" class="st4" d="M24.4 31.3v5.6"/><path id="XMLID_178_" class="st4" d="M29.2 31.3v5.6"/></g><path id="XMLID_179_" class="st2" d="M40.3 43.3c-2.1 0-3.8-1.7-3.8-3.8V30H44v9.5c0 2.1-1.7 3.8-3.7 3.8z"/><path id="XMLID_183_" class="st2" d="M40.3 43.3v10.8"/><path id="XMLID_184_" class="st2" d="M35.6 54.1h9"/><g id="XMLID_185_" class="st3"><path id="XMLID_187_" class="st4" d="M24.4 12.7v3.6"/><path id="XMLID_186_" class="st4" d="M28.4 13.8l-1.8 3.1"/><path id="XMLID_188_" class="st4" d="M31.4 16.8l-3.1 1.8"/><path id="XMLID_189_" class="st4" d="M32.5 20.9l-3.6-.1"/><path id="XMLID_190_" class="st4" d="M31.4 24.9l-3.1-1.8"/><path id="XMLID_191_" class="st4" d="M28.4 27.9l-1.8-3.2"/><path id="XMLID_192_" class="st4" d="M24.3 29v-3.7"/><path id="XMLID_193_" class="st4" d="M20.3 27.9l1.8-3.2"/><path id="XMLID_194_" class="st4" d="M17.3 24.9l3.2-1.8"/><path id="XMLID_195_" class="st4" d="M16.2 20.8h3.7"/><path id="XMLID_196_" class="st4" d="M17.3 16.7l3.2 1.9"/><path id="XMLID_197_" class="st4" d="M20.3 13.8l1.8 3.1"/></g></g><g id="XMLID_124_" class="st0"><path id="XMLID_201_" class="st2" d="M53.5 13.4h-43c-.1 0-.2.1-.2.2v26.2c0 .1.1.2.2.2h12.4l8.5 10.2c.4.5 1.1.5 1.5 0L41 40h12.5c.1 0 .2-.1.2-.2V13.6c0-.1-.1-.2-.2-.2z"/><path id="XMLID_136_" class="st2" d="M42.5 23.6c0-3.4-2.7-6.1-6.1-6.1-1.7 0-3.2.7-4.4 1.8-1.1-1.1-2.6-1.8-4.4-1.8-3.4 0-6.1 2.7-6.1 6.1 0 1.6.7 3.1 1.7 4.2l8.7 8.7 8.9-8.9.4-.4c.8-1 1.3-2.3 1.3-3.6z"/><g id="XMLID_200_" class="st3"><path id="XMLID_204_" class="st4" d="M29.9 29.4c.5.5 1.1.7 1.8.7s1.3-.3 1.8-.7c.5-.5.7-1.1.7-1.8s-.3-1.3-.7-1.8c-.4-.4-1-.7-1.7-.7 0 0-.1 0 0-.1l2.3-2.3c.1-.1 0-.1-.1-.1h-4.1"/></g></g><g id="XMLID_265_" class="st0"><circle id="XMLID_256_" class="st2" cx="31.7" cy="32.2" r="11.9"/><circle id="XMLID_225_" class="st2" cx="42.1" cy="14.3" r="2.8"/><circle id="XMLID_231_" class="st2" cx="52.2" cy="32" r="2.8"/><circle id="XMLID_236_" class="st2" cx="11.8" cy="32" r="2.8"/><circle id="XMLID_232_" class="st2" cx="41.5" cy="49.7" r="2.8"/><circle id="XMLID_235_" class="st2" cx="21.9" cy="14.3" r="2.8"/><circle id="XMLID_233_" class="st2" cx="21.5" cy="49.7" r="2.8"/><g id="XMLID_244_" class="st3"><path id="XMLID_249_" class="st4" d="M24.9 39.7v-3.5c0-.3.2-.6.5-.7l4.3-1.5v-2.4"/><path id="XMLID_248_" class="st4" d="M38.3 39.7v-3.5c0-.3-.2-.6-.5-.7L33.5 34v-2.4"/><path id="XMLID_247_" class="st4" d="M34.8 26.2c0-1.8-1.4-3.2-3.2-3.2s-3.2 1.4-3.2 3.2l.3 3.9c0 .5.3 1 .8 1.2l1.6 1h1l1.6-1c.5-.2.8-.7.8-1.2l.3-3.9z"/><path id="XMLID_246_" class="st4" d="M29.7 34.1l1.2 1.3h1.5l1.2-1.3"/></g><path id="XMLID_257_" class="st2" d="M38.6 49.7H24.4"/><path id="XMLID_239_" class="st2" d="M50.8 34.5l-7.5 13"/><path id="XMLID_238_" class="st2" d="M43.5 16.8l7.3 12.7"/><path id="XMLID_237_" class="st2" d="M24.7 14.3h14.6"/><path id="XMLID_234_" class="st2" d="M12.9 29.4l7.4-12.7"/><path id="XMLID_228_" class="st2" d="M20.2 47.2l-7.3-12.6"/><path id="XMLID_263_" class="st2" d="M25.7 42.6l-2.9 4.9"/><path id="XMLID_264_" class="st2" d="M14.6 32h5.2"/><path id="XMLID_242_" class="st2" d="M43.5 32h5.9"/><path id="XMLID_267_" class="st2" d="M37.7 42.6l2.4 4.6"/><path id="XMLID_268_" class="st2" d="M26.2 21.6l-2.7-4.9"/><path id="XMLID_269_" class="st2" d="M40.7 16.7l-3 5.2"/></g><g id="XMLID_277_" class="st0"><path id="XMLID_276_" class="st2" d="M20.3 21.4v-8.5c0-1.1.9-2 2-2h19.9c1.1 0 2 .9 2 2v8.5"/><path id="XMLID_243_" class="st2" d="M44.2 43v8.2c0 1.1-.9 2-2 2H22.3c-1.1 0-2-.9-2-2V43"/><path id="XMLID_289_" class="st2" d="M20.3 16.9h23.9"/><path id="XMLID_288_" class="st2" d="M28.4 14h7.7"/><path id="XMLID_287_" class="st2" d="M20.3 47.1h23.9"/><path id="XMLID_240_" class="st6" d="M41.8 28.9c.2 1 .3 2 .3 3.1 0 1-.1 2.1-.3 3.1"/><path id="XMLID_274_" class="st6" d="M45.5 24.2c.5 1.2.9 2.5 1.2 3.8.3 1.3.4 2.7.4 4s-.1 2.7-.4 4c-.3 1.3-.7 2.6-1.2 3.8"/><path id="XMLID_271_" class="st6" d="M47.9 17.9c.9 1.3 1.7 2.8 2.3 4.3.6 1.5 1.1 3.1 1.5 4.7.3 1.6.5 3.3.5 5.1 0 1.7-.2 3.4-.5 5.1-.3 1.6-.8 3.2-1.5 4.7-.6 1.5-1.4 2.9-2.3 4.3"/><path id="XMLID_275_" class="st6" d="M22.2 28.9c-.2 1-.3 2-.3 3.1 0 1 .1 2.1.3 3.1"/><path id="XMLID_273_" class="st6" d="M18.5 24.2c-.5 1.2-.9 2.5-1.2 3.8-.3 1.3-.4 2.7-.4 4s.1 2.7.4 4c.3 1.3.7 2.6 1.2 3.8"/><path id="XMLID_272_" class="st6" d="M16.1 17.9c-.9 1.3-1.7 2.8-2.3 4.3-.6 1.5-1.1 3.1-1.5 4.7-.3 1.6-.5 3.3-.5 5.1 0 1.7.2 3.4.5 5.1.3 1.6.8 3.2 1.5 4.7.6 1.5 1.4 2.9 2.3 4.3"/><circle id="XMLID_294_" class="st2" cx="32.2" cy="31.6" r="3.8"/></g><g id="XMLID_164_" class="st0"><path id="XMLID_167_" class="st7" d="M51.4 32.4c1.6-2.1 2.5-4.7 2.5-7.6 0-7.1-5.7-12.8-12.8-12.8-2.6 0-5 .8-7.1 2.1"/><path id="XMLID_329_" class="st2" d="M34.1 14.2c-.7.5-1.4 1.1-2.1 1.7-2.3-2.4-5.5-3.8-9.1-3.8-7.1 0-12.8 5.7-12.8 12.8 0 3.4 1.4 6.6 3.6 8.9L32 52l18.7-18.6c.2-.2.7-.9.7-.9"/></g><g id="XMLID_308_" class="st0"><g id="XMLID_304_" class="st3"><path id="XMLID_337_" class="st4" d="M29.1 10.6v17.6c0 .2.1.3.3.3h4.1v7.2c0 .3.4.5.6.2l7.7-7.4h11.7c.2 0 .3-.1.3-.3V10.6c0-.2-.1-.3-.3-.3h-24c-.2 0-.4.1-.4.3z"/><path id="XMLID_336_" class="st4" d="M33 14.8h17"/><path id="XMLID_335_" class="st4" d="M33 19.7h17"/><path id="XMLID_334_" class="st4" d="M33 24.6h9.3"/></g><path id="XMLID_328_" class="st2" d="M22.3 27.3c0-1.3-1.1-2.4-2.4-2.4-.7 0-1.3.3-1.7.7-.4-.4-1-.7-1.7-.7-1.3 0-2.4 1.1-2.4 2.4 0 .6.3 1.2.7 1.7l3.5 3.4 3.5-3.5.1-.2c.2-.4.4-.9.4-1.4z"/><g id="XMLID_306_" class="st3"><path id="XMLID_305_" class="st4" d="M16.9 38.5v15.1c0 .1.1.2.2.2h31.5c.1 0 .2-.1.2-.2V30.5"/><path id="XMLID_318_" class="st4" d="M16.9 49.8h32.3"/><path id="XMLID_316_" class="st4" d="M16.9 45.7c1.2-1.6 3.2-2.7 5.4-2.7 3.7 0 6.7 3 6.7 6.7"/><path id="XMLID_321_" class="st4" d="M26.8 45.7C28 44 30 43 32.1 43c3.7 0 6.7 3 6.7 6.7"/><circle id="XMLID_307_" class="st4" cx="42" cy="37.8" r="3"/><path id="XMLID_323_" class="st4" d="M40.5 46.4h5.7"/></g><g id="XMLID_966_" class="st3"><g id="XMLID_967_"><path id="XMLID_2517_" class="st4" d="M26.1 36l-.8-4.2c.4-1 .7-2.1.7-3.2 0-4.4-3.6-7.9-7.9-7.9-4.4 0-7.9 3.6-7.9 7.9s3.6 7.9 7.9 7.9c1.5 0 3-.5 4.2-1.2l3.8.7z"/></g></g></g><g id="XMLID_284_" class="st0"><path id="XMLID_350_" class="st2" d="M28.3 10.3v13.8c0 .1.1.3.3.3h3.2V30c0 .3.3.4.5.2l6-5.8h9.2c.1 0 .3-.1.3-.3V10.3c0-.1-.1-.3-.3-.3h-19c-.1.1-.2.2-.2.3z"/><g id="XMLID_384_" class="st3"><path id="XMLID_389_" class="st4" d="M24.3 51.9v-4c0-.4.2-.7.6-.8l4.9-1.7v-2.8"/><path id="XMLID_387_" class="st4" d="M39.7 51.9v-4c0-.4-.2-.7-.6-.8l-4.9-1.7v-2.8"/><path id="XMLID_386_" class="st4" d="M35.7 36.4c0-2.1-1.7-3.7-3.7-3.7-2.1 0-3.7 1.7-3.7 3.7l.4 4.5c0 .6.4 1.1.9 1.4l1.8 1.2h1.2l1.9-1.2c.5-.3.9-.8.9-1.4l.3-4.5z"/><path id="XMLID_385_" class="st4" d="M29.8 45.4l1.4 1.6h1.7l1.4-1.6"/></g><path id="XMLID_282_" class="st2" d="M27.4 29.9H13.9c-1.1 0-2 .9-2 2v19.9c0 1.1.9 2 2 2h36.3c1.1 0 2-.9 2-2V32c0-1.1-.9-2-2-2H39"/><path id="XMLID_296_" class="st2" d="M17.9 53.9v-24"/><path id="XMLID_295_" class="st2" d="M15 45.8v-7.7"/><path id="XMLID_293_" class="st2" d="M46.1 53.9v-24"/><path id="XMLID_280_" class="st2" d="M31.6 17H34"/><path id="XMLID_279_" class="st2" d="M36.8 17h2.4"/><path id="XMLID_283_" class="st2" d="M42 17h2.4"/></g><g id="XMLID_366_" class="st0"><g id="XMLID_96_" class="st3"><g id="XMLID_165_"><path id="XMLID_159_" class="st4" d="M40.3 25.6h-17c-.1 0-.2-.1-.2-.2V11.6c0-.1.1-.2.2-.2h17c.1 0 .2.1.2.2v13.8c.1.1-.1.2-.2.2z"/><path id="XMLID_98_" class="st4" d="M35.1 18.7l-6.5 3.7c-.1.1-.3 0-.3-.2v-7.5c0-.1.1-.2.3-.2l6.5 3.7c.2.2.2.4 0 .5l-6.5 3.7c-.1.1-.3 0-.3-.2v-7.5c0-.1.1-.2.3-.2l6.5 3.7c.2.2.2.4 0 .5z"/></g><g id="XMLID_72_"><path id="XMLID_363_" class="st4" d="M42.9 22.1h11.8c.1 0 .2.1.2.2v14.5c0 .1-.1.2-.2.2h-3.3"/><path id="XMLID_144_" class="st4" d="M43.2 32.2l1.9-2 3.3 2.9h6.5"/><path id="XMLID_95_" class="st4" d="M48.1 26.3h3.2"/></g><g id="XMLID_358_"><path id="XMLID_100_" class="st4" d="M11.9 38.1H9.3c-.1 0-.2-.1-.2-.2V23.3c0-.1.1-.2.2-.2h11.8"/><path id="XMLID_74_" class="st4" d="M12.1 33.2h3V28h6.3v5.2h-3.1"/></g><g id="XMLID_55_"><path id="XMLID_69_" class="st4" d="M36.5 34.4c-1.1-1.7-3.1-2.9-5.3-2.9-1.2 0-2.3.3-3.2.9"/><path id="XMLID_67_" class="st4" d="M23.1 33.7c1.5 0 2.7 1.2 2.7 2.7"/><path id="XMLID_62_" class="st4" d="M8.9 41.9h4.3c0-2.1 1.7-3.9 3.9-3.9h.9c.4-2.5 2.5-4.4 5.1-4.4.5 0 .9.1 1.3.2 1-3.1 3.8-5.3 7.2-5.3 3.8 0 6.9 2.8 7.4 6.4.9-.5 1.9-.9 3-.9 2.5 0 4.6 1.7 5.3 4h.2c2.1 0 3.9 1.7 3.9 3.9h3.8"/></g></g><path id="XMLID_380_" class="st2" d="M26.4 43.5l4.5 4.5 9-9"/><path id="XMLID_368_" class="st2" d="M37.3 46c0 3.7-3 6.6-6.6 6.6-3.7 0-6.6-3-6.6-6.6 0-3.7 3-6.6 6.6-6.6 1.2 0 2.3.3 3.2.8"/></g><g id="XMLID_364_" class="st0"><path id="XMLID_518_" class="st2" d="M15.1 46.1v-35c0-.1.1-.2.2-.2h35.5c.1 0 .2.1.2.2v35"/><path id="XMLID_517_" class="st2" d="M15.1 16.6h35.8"/><path id="XMLID_362_" class="st2" d="M17.6 13.8h2.3"/><path id="XMLID_361_" class="st2" d="M21.7 13.8H24"/><path id="XMLID_506_" class="st2" d="M25.9 13.8h2.2"/><g id="XMLID_446_" class="st3"><path id="XMLID_451_" class="st4" d="M54.6 48.4v4.2c0 .2-.1.3-.3.3H13l-3.5-2.2c-.2-.1-.2-.3 0-.4l3.5-2.2h41.4c.1 0 .2.1.2.3z"/><path id="XMLID_450_" class="st4" d="M50 53.1v-5.2"/><path id="XMLID_448_" class="st4" d="M13.8 53.1v-5.2"/></g><path id="XMLID_405_" class="st2" d="M46.5 45.2H18.9c-.1 0-.2-.1-.2-.2v-7.3c0-.1.1-.2.2-.2h27.6c.1 0 .2.1.2.2V45c-.1.1-.1.2-.2.2z"/><g id="XMLID_402_" class="st3"><path id="XMLID_404_" class="st4" d="M19.4 23.7v-2.3h6.9v2.3"/><path id="XMLID_403_" class="st4" d="M22.9 21.5v8"/></g><path id="XMLID_417_" class="st2" d="M29.3 21.4h17.3"/><path id="XMLID_360_" class="st2" d="M29.3 25.5h17.3"/><path id="XMLID_418_" class="st2" d="M29.3 29.6h17.3"/><path id="XMLID_419_" class="st2" d="M18.4 33.7h28.2"/></g><g id="XMLID_367_" class="st0"><path id="XMLID_439_" class="st2" d="M46.3 30.5c.1 10.3-12.6 22.1-14.1 23.5-.1.1-.2.1-.3 0-1.5-1.4-14.3-13.2-14.2-23.5.1-7.9 6.4-14.3 14.3-14.3s14.3 6.4 14.3 14.3z"/><path id="XMLID_452_" class="st7" d="M17.4 45.3c-3.7-3.7-6.1-8.9-6.1-14.6 0-5.7 2.3-10.9 6.1-14.6S26.3 10 32 10c5.7 0 10.9 2.3 14.6 6.1 3.7 3.7 6.1 8.9 6.1 14.6 0 5.7-2.3 10.9-6.1 14.6"/><path id="XMLID_438_" class="st2" d="M36 37.5l-4-2.2-4 2.1c-.5.3-1.1-.2-1-.7l.8-4.5-3.2-3.2c-.4-.4-.2-1.1.4-1.1l4.5-.6 2-4.1c.3-.5 1-.5 1.2 0l2 4.1 4.5.7c.5.1.8.8.4 1.1l-3.3 3.1.7 4.5c0 .7-.6 1.1-1 .8z"/><path id="XMLID_215_" class="st7" d="M32 39.4v2.7"/><path id="XMLID_169_" class="st7" d="M32 43.4v2.7"/><path id="XMLID_216_" class="st7" d="M32 47.4v2.7"/></g><g id="XMLID_395_" class="st0"><path id="XMLID_379_" class="st2" d="M51.3 51.4H12.7c-.1 0-.2-.1-.2-.2V30.3c0-.1.2-.2.3-.1l13.4 10.4h11.6l13.4-10.4c.1-.1.3 0 .3.1v20.9c0 .1-.1.2-.2.2z"/><path id="XMLID_382_" class="st2" d="M46.9 31.1V12.7c0-.1-.1-.2-.2-.2H17.2c-.1 0-.2.1-.2.2V31"/><path id="XMLID_383_" class="st2" d="M12.8 30.2l4.3-2.8"/><path id="XMLID_390_" class="st2" d="M46.8 27.4l4.3 2.8"/><g id="XMLID_391_" class="st3"><circle id="XMLID_381_" class="st4" cx="32" cy="25.3" r="3.2"/><path id="XMLID_397_" class="st4" d="M35 32.4c-.9.4-1.9.6-3 .6s-2.1-.2-3-.6c-.9-.4-1.8-1-2.5-1.7s-1.3-1.5-1.7-2.5c-.4-.9-.6-1.9-.6-3s.2-2.1.6-3c.4-.9 1-1.8 1.7-2.5S28 18.4 29 18c.9-.4 1.9-.6 3-.6s2.1.2 3 .6c.9.4 1.8 1 2.5 1.7s1.3 1.5 1.7 2.5c.4.9.6 1.9.6 3"/><path id="XMLID_396_" class="st4" d="M39.7 25.2v1.5c0 1.3-1 2.3-2.3 2.3-1.3 0-2.3-1-2.3-2.3v-.5"/></g></g><g id="XMLID_411_" class="st0"><path id="XMLID_437_" class="st2" d="M35.8 37.7l-6.2 3.6c-.1.1-.3 0-.3-.1V34c0-.1.1-.2.3-.1l6.2 3.6c.1 0 .1.1 0 .2l-6.2 3.6c-.1.1-.3 0-.3-.1V34c0-.1.1-.2.3-.1l6.2 3.6c.1 0 .1.1 0 .2z"/><path id="XMLID_408_" class="st2" d="M23.5 24.2H11.8c-1.2 0-2.3 1-2.3 2.3v22.2c0 1.2 1 2.3 2.3 2.3h40.4c1.2 0 2.3-1 2.3-2.3V26.5c0-1.2-1-2.3-2.3-2.3H40.9"/><path id="XMLID_424_" class="st2" d="M16.4 50.9V24.2"/><path id="XMLID_422_" class="st2" d="M13.1 41.8v-8.5"/><path id="XMLID_421_" class="st2" d="M47.7 50.9V24.2"/><path id="XMLID_416_" class="st6" d="M28.6 24.7c1.1-.2 2.2-.3 3.4-.3 1.2 0 2.3.1 3.4.3"/><path id="XMLID_415_" class="st6" d="M23.3 20.6c1.3-.6 2.7-1 4.2-1.3 1.5-.3 3-.5 4.5-.5s3 .2 4.5.5 2.8.7 4.2 1.3"/><path id="XMLID_413_" class="st6" d="M16.3 17.9c1.5-1 3.1-1.9 4.8-2.6 1.7-.7 3.4-1.3 5.3-1.6 1.8-.4 3.7-.6 5.7-.6 1.9 0 3.8.2 5.7.6 1.8.4 3.6.9 5.3 1.6 1.7.7 3.3 1.6 4.8 2.6"/><path id="XMLID_449_" class="st2" d="M21.8 37.5c0-5.2 4.2-9.4 9.4-9.4s9.4 4.2 9.4 9.4-4.2 9.4-9.4 9.4"/><path id="XMLID_407_" class="st7" d="M31.3 47c-5.2 0-9.4-4.2-9.4-9.4"/></g><g id="XMLID_461_" class="st0"><path id="XMLID_447_" class="st2" d="M35.2 10.8v13.8c0 .1.1.3.3.3h3.2v5.6c0 .3.3.4.5.2l6-5.8h9.2c.1 0 .3-.1.3-.3V10.8c0-.1-.1-.3-.3-.3H35.5c-.2 0-.3.1-.3.3z"/><g id="XMLID_436_" class="st3"><path id="XMLID_444_" class="st4" d="M24.3 51.4v-4c0-.4.2-.7.6-.8l4.9-1.7v-2.8"/><path id="XMLID_443_" class="st4" d="M39.6 51.4v-4c0-.4-.2-.7-.6-.8l-4.9-1.7v-2.8"/><path id="XMLID_441_" class="st4" d="M35.7 35.8c0-2.1-1.7-3.7-3.7-3.7-2.1 0-3.7 1.7-3.7 3.7l.4 4.5c0 .6.4 1.1.9 1.4l1.8 1.2h1.2l1.9-1.2c.5-.3.9-.8.9-1.4l.3-4.5z"/><path id="XMLID_440_" class="st4" d="M29.8 44.8l1.4 1.6h1.6l1.4-1.6"/></g><g id="XMLID_412_" class="st3"><path id="XMLID_435_" class="st4" d="M10.9 51.4v-4c0-.4.2-.7.6-.8l4.9-1.7v-2.8"/><path id="XMLID_434_" class="st4" d="M22.7 45.5l-2-.7v-2.7"/><path id="XMLID_433_" class="st4" d="M22.3 35.8c0-2.1-1.7-3.7-3.7-3.7-2.1 0-3.7 1.7-3.7 3.7l.4 4.5c0 .6.4 1.1.9 1.4l1.8 1.2h1.2l1.9-1.2c.5-.3.9-.8.9-1.4l.3-4.5z"/><path id="XMLID_432_" class="st4" d="M16.4 44.8l1.4 1.6h1.6l1.4-1.6"/></g><g id="XMLID_454_" class="st3"><path id="XMLID_458_" class="st4" d="M53 51.4v-4c0-.4-.2-.7-.6-.8l-4.9-1.7v-2.8"/><path id="XMLID_457_" class="st4" d="M41.3 45.5l1.9-.7v-2.7"/><path id="XMLID_456_" class="st4" d="M41.6 35.8c0-2.1 1.7-3.7 3.7-3.7 2.1 0 3.7 1.7 3.7 3.7l-.4 4.5c0 .6-.4 1.1-.9 1.4L46 42.9h-1.2l-1.9-1.2c-.5-.3-.9-.8-.9-1.4l-.4-4.5z"/><path id="XMLID_455_" class="st4" d="M47.5 44.8l-1.4 1.6h-1.6l-1.4-1.6"/></g><path id="XMLID_431_" class="st2" d="M38.5 17.5h2.4"/><path id="XMLID_429_" class="st2" d="M43.7 17.5h2.4"/><path id="XMLID_427_" class="st2" d="M49 17.5h2.3"/><path id="XMLID_462_" class="st2" d="M29.7 10.8v13.8c0 .1-.1.3-.3.3h-3.2v5.6c0 .3-.3.4-.5.2l-6-5.8h-9.2c-.1 0-.3-.1-.3-.3V10.8c0-.1.1-.3.3-.3h18.9c.1 0 .3.1.3.3z"/><path id="XMLID_459_" class="st2" d="M26.2 13.8H13.6"/><path id="XMLID_453_" class="st2" d="M26.2 17.7H13.6"/><path id="XMLID_460_" class="st2" d="M20.8 21.5h-7.2"/><path id="XMLID_463_" class="st2" d="M8 53.5h48"/></g><g id="XMLID_466_" class="st0"><path id="XMLID_465_" class="st2" d="M41 51.2H19.6c-.1 0-.1-.1-.2-.1l-3.8-21.4c0-.1.1-.2.2-.2h29.1c.1 0 .2.1.2.2l-3.8 21.4c-.1.1-.2.1-.3.1z"/><path id="XMLID_467_" class="st2" d="M44 49h3.6c0 3-2.4 5.5-5.5 5.5H18.5c-3 0-5.5-2.4-5.5-5.5h3.6"/><path id="XMLID_468_" class="st2" d="M44.6 35.2h2.1c2.4 0 4.4 2 4.4 4.4 0 2.4-2 4.4-4.4 4.4h-3.8"/><path id="XMLID_472_" class="st2" d="M26.5 27c0-1.9 1.5-3.4 3.4-3.4s3.4 1.5 3.4 3.4"/><path id="XMLID_469_" class="st2" d="M24.4 21.4c1.4-1.4 3.4-2.3 5.5-2.3 2.2 0 4.1.9 5.5 2.3"/><path id="XMLID_470_" class="st2" d="M21.1 18.1c2.3-2.3 5.4-3.7 8.9-3.7s6.6 1.4 8.9 3.7"/><path id="XMLID_471_" class="st7" d="M17.6 14.6c3.2-3.2 7.5-5.1 12.3-5.1 4.8 0 9.2 2 12.3 5.1"/></g><g id="XMLID_297_" class="st0"><path id="XMLID_241_" class="st2" d="M32 14.9c-6.5 0-11.7 5.3-11.7 11.7V33c0 2.4-1.9 4.3-4.3 4.3h-.8c-.1 0-.2.1-.2.2v8.4c0 .1.1.2.2.2h33.6c.1 0 .2-.1.2-.2v-8.4c0-.1-.1-.2-.2-.2H48c-2.4 0-4.3-1.9-4.3-4.3v-3.8"/><path id="XMLID_220_" class="st2" d="M37.3 46.1c0 3-2.5 5.5-5.5 5.5s-5.5-2.5-5.5-5.5"/><circle id="XMLID_218_" class="st2" cx="41.6" cy="19.8" r="7.4"/><path id="XMLID_281_" class="st2" d="M36.3 19.8h2.1"/><path id="XMLID_245_" class="st2" d="M40.3 19.8h2.1"/><path id="XMLID_291_" class="st2" d="M44.3 19.8h2.1"/></g></g><g id="Icon_text" class="st0"><g id="XMLID_9_" class="st3"><text id="XMLID_479_" transform="translate(-160.069 -78.333)"><tspan x="0" y="0" class="st8 st9 st10">MALE</tspan><tspan x="-4.7" y="7" class="st8 st9 st10">AVATAR</tspan></text></g><g id="XMLID_21_" class="st3"><text id="XMLID_480_" transform="translate(-73.48 -78.334)"><tspan x="0" y="0" class="st8 st9 st10">FEMALE</tspan><tspan x="-.2" y="7" class="st8 st9 st10">AVATAR</tspan></text></g><g id="XMLID_49_" class="st3"><text id="XMLID_481_" transform="translate(16.534 -78.333)"><tspan x="0" y="0" class="st8 st9 st10">FOLLOW</tspan><tspan x="10.6" y="7" class="st8 st9 st10">US</tspan></text></g><g id="XMLID_51_" class="st3"><text id="XMLID_482_" transform="translate(105.529 -78.333)"><tspan x="0" y="0" class="st8 st9 st10">CONTENT</tspan><tspan x="1" y="7" class="st8 st9 st10">SHARING</tspan></text></g><g id="XMLID_78_" class="st3"><text id="XMLID_483_" transform="translate(205.405 -78.333)"><tspan x="0" y="0" class="st8 st9 st10">FIND</tspan><tspan x="-7.1" y="7" class="st8 st9 st10">FRIENDS</tspan></text></g><g id="XMLID_103_" class="st3"><text id="XMLID_484_" transform="translate(-161.458 18.167)" class="st8 st9 st10">EMOJI</text></g><g id="XMLID_133_" class="st3"><text id="XMLID_485_" transform="translate(-78.034 18.167)" class="st8 st9 st10">THUMB UP</text></g><g id="XMLID_109_" class="st3"><text id="XMLID_486_" transform="translate(109.312 18.167)"><tspan x="0" y="0" class="st8 st9 st10">ADD TO</tspan><tspan x="-4.2" y="7" class="st8 st9 st10">FAVORITE</tspan></text></g><g id="XMLID_149_" class="st3"><text id="XMLID_487_" transform="translate(15.649 18.166)" class="st8 st9 st10">CHATING</text></g><g id="XMLID_198_" class="st3"><text id="XMLID_488_" transform="translate(200.04 18.167)" class="st8 st9 st10">EVENTS</text></g><g id="XMLID_199_" class="st3"><text id="XMLID_489_" transform="translate(-159.897 113.5)" class="st8 st9 st10">LIKES</text></g><g id="XMLID_230_" class="st3"><text id="XMLID_490_" transform="translate(-70.182 113.5)"><tspan x="0" y="0" class="st8 st9 st10">VIDEO</tspan><tspan x="-5.3" y="7" class="st8 st9 st10">SHARING</tspan></text></g><g id="XMLID_270_" class="st3"><text id="XMLID_492_" transform="translate(18.816 113.5)"><tspan x="0" y="0" class="st8 st9 st10">SOCIAL</tspan><tspan x="-5.3" y="7" class="st8 st9 st10">NETWORK</tspan></text></g><g id="XMLID_278_" class="st3"><text id="XMLID_493_" transform="translate(113.526 113.5)"><tspan x="0" y="0" class="st8 st9 st10">WI-FI</tspan><tspan x="-7.6" y="7" class="st8 st9 st10">HOTSPOT</tspan></text></g><g id="XMLID_309_" class="st3"><text id="XMLID_511_" transform="translate(200.99 113.5)"><tspan x="0" y="0" class="st8 st9 st10">PHOTO</tspan><tspan x="-3.7" y="7" class="st8 st9 st10">TAGGING</tspan></text></g><g id="XMLID_290_" class="st3"><text id="XMLID_513_" transform="translate(-161.273 209.834)"><tspan x="0" y="0" class="st8 st9 st10">VIDEO</tspan><tspan x="-18" y="7" class="st8 st9 st10">CONVERSATION</tspan></text></g><g id="XMLID_359_" class="st3"><text id="XMLID_516_" transform="translate(-71.704 209.834)"><tspan x="0" y="0" class="st8 st9 st10">CLOUD</tspan><tspan x="-12.2" y="7" class="st8 st9 st10">COPMPUTING</tspan></text></g><g id="XMLID_365_" class="st3"><text id="XMLID_519_" transform="translate(13.073 209.834)" class="st8 st9 st10">BLOGGING</text></g><g id="XMLID_369_" class="st3"><text id="XMLID_520_" transform="translate(104.17 209.834)" class="st8 st9 st10">LOCATION</text></g><g id="XMLID_401_" class="st3"><text id="XMLID_521_" transform="translate(201.215 209.833)" class="st8 st9 st10">E-MAIL</text></g><g id="XMLID_420_" class="st3"><text id="XMLID_522_" transform="translate(24.413 305.167)"><tspan x="0" y="0" class="st8 st9 st10">LIVE</tspan><tspan x="-13.9" y="7" class="st8 st9 st10">STREAMING</tspan></text></g><g id="XMLID_464_" class="st3"><text id="XMLID_523_" transform="translate(109.66 305.168)" class="st8 st9 st10">FORUM</text></g><g id="XMLID_473_" class="st3"><text id="XMLID_524_" transform="translate(-159.258 305.168)"><tspan x="0" y="0" class="st8 st9 st10">FREE</tspan><tspan x="-.5" y="7" class="st8 st9 st10">WI-FI</tspan></text></g><g id="XMLID_148_" class="st3"><text id="XMLID_525_" transform="translate(-71.179 305.168)" class="st8 st9 st10">HEART</text></g><g id="XMLID_491_" class="st3"><text id="XMLID_526_" transform="translate(187.79 305.168)" class="st8 st9 st10">NOTIFICATION</text></g></g><g id="headline" class="st0"><circle id="XMLID_61_" cx="-133.5" cy="-208.4" r="18.3" display="inline" fill="#74e2f0"/><circle id="XMLID_60_" cx="-110.1" cy="-208.4" r="18.3" display="inline" fill="#fbda73"/><circle id="XMLID_63_" cx="-122.7" cy="-190.1" r="18.3" display="inline" fill="#f08e70"/><g id="XMLID_4_" class="st3"><text id="XMLID_527_" transform="translate(-183.755 -194.085)"><tspan x="0" y="0" fill="#231f20" font-family="Oswald-Bold" font-size="22.512">FLAT </tspan><tspan x="45.5" y="0" fill="#231f20" font-family="Oswald-Light" font-size="22.512">LINE </tspan><tspan x="83.9" y="0" fill="#231f20" font-family="Oswald-Bold" font-size="22.512">ICONS</tspan></text></g><g id="XMLID_1_" class="st3"><text id="XMLID_528_" transform="translate(82.4 -193.906)" fill="#231f20" font-family="Oswald-Light" font-size="16.174">SOCIAL MEDIA &amp; NETWORK</text></g></g></svg>