<svg xmlns="http://www.w3.org/2000/svg" width="792" height="792"><path d="M522 792s72 0 72-72V72c0-72-72-72-72-72H270s-72 0-72 72v648c0 72 72 72 72 72h252zM234 72c0-17.352 5.4-25.452 16.092-30.816C257.688 37.404 266.076 36 270 36h252c3.924 0 12.312 1.404 19.908 5.184C552.6 46.548 558 54.648 558 72v18H234V72zm0 54h324v486H234V126zm0 594v-72h324v72c0 17.352-5.4 25.452-16.092 30.816C534.312 754.596 525.924 756 522 756H270c-3.924 0-12.312-1.404-19.908-5.184C239.4 745.452 234 737.352 234 720z"/><path d="M445.212 54h-98.424c-2.664 0-4.788 3.492-4.788 7.956v2.124c0 4.392 2.16 7.956 4.788 7.956h98.424c2.664 0 4.788-3.492 4.788-7.956v-2.124c0-4.392-2.16-7.956-4.788-7.956z"/><circle cx="396" cy="702" r="36"/></svg>