<svg xmlns="http://www.w3.org/2000/svg" viewBox="0 0 64 64"><style>.st0{display:none}.st2{fill:none;stroke:#4c5159;stroke-width:2;stroke-miterlimit:10}.st2,.st3{display:inline}.st4{fill:none;stroke:#4c5159;stroke-width:2;stroke-miterlimit:10}.st5{display:inline}.st5,.st6{fill:none;stroke:#4c5159;stroke-width:2;stroke-miterlimit:10;stroke-dasharray:1.9857,1.9857}.st7{fill:#4c5159}.st8{font-family:&apos;Montserrat-Bold&apos;}.st9{font-size:7px}</style><g id="bg" class="st0"><path id="XMLID_119_" display="inline" fill="#fff" d="M-218-268.2h500v600.3h-500z"/></g><g id="icons"><g id="XMLID_54_" class="st0"><path id="XMLID_797_" class="st2" d="M52.6 52.9H11.4c-.5 0-1-.4-1.1-.9l-.3-2.5h18.3l.7 1h5l.8-1H54l-.4 2.5c-.1.5-.5.9-1 .9z"/><path id="XMLID_9_" class="st2" d="M14.1 23.7H12c-.1 0-.3.1-.3.3v25.6"/><path id="XMLID_8_" class="st2" d="M52.3 49.5V24c0-.1-.1-.3-.3-.3h-2.8"/><path id="XMLID_324_" class="st2" d="M15.8 45.5h31.9"/><path id="XMLID_4_" class="st2" d="M46.7 41.6H16.8c-.1 0-.2-.1-.2-.2V11.3c0-.1.1-.2.2-.2h29.9c.1 0 .2.1.2.2v30.1c0 .1-.1.2-.2.2z"/><path id="XMLID_13_" class="st2" d="M15.8 16.5h31.1"/><path id="XMLID_14_" class="st2" d="M19.4 13.6h1.9"/><path id="XMLID_7_" class="st2" d="M22.5 13.6h1.9"/><path id="XMLID_15_" class="st2" d="M25.6 13.6h1.9"/><path id="XMLID_16_" class="st2" d="M20.3 22h1.9"/><path id="XMLID_36_" class="st2" d="M24.6 22h10.8"/><path id="XMLID_40_" class="st2" d="M40.8 22h-3.4"/><path id="XMLID_17_" class="st2" d="M20.3 25.8h1.9"/><path id="XMLID_44_" class="st2" d="M24.4 25.8h4.8"/><path id="XMLID_48_" class="st2" d="M43.6 25.8H31.4"/><path id="XMLID_21_" class="st2" d="M20.3 29.6h1.9"/><path id="XMLID_49_" class="st2" d="M24.7 29.6h11.1"/><path id="XMLID_25_" class="st2" d="M20.3 33.3h1.9"/><path id="XMLID_50_" class="st2" d="M24.5 33.3h7.3"/><path id="XMLID_51_" class="st2" d="M39.9 33.3h-6"/><path id="XMLID_29_" class="st2" d="M20.3 37.1h1.9"/><path id="XMLID_52_" class="st2" d="M24.6 37.1h12.8"/><path id="XMLID_53_" class="st2" d="M40.9 37.1h-2.5"/></g><g id="XMLID_145_" class="st0"><g id="XMLID_56_" class="st3"><path id="XMLID_79_" class="st4" d="M55.4 52.9H8.6c-.1 0-.2-.1-.2-.2v-8.5c0-.1.1-.2.2-.2h46.8c.1 0 .2.1.2.2v8.5c0 .1-.1.2-.2.2z"/><path id="XMLID_78_" class="st4" d="M12.9 44v3.6"/><path id="XMLID_75_" class="st4" d="M17.6 44v3.6"/><path id="XMLID_74_" class="st4" d="M22.4 44v3.6"/><path id="XMLID_70_" class="st4" d="M27.1 44v3.6"/><path id="XMLID_69_" class="st4" d="M31.8 44v3.6"/><path id="XMLID_68_" class="st4" d="M36.5 44v3.6"/><path id="XMLID_59_" class="st4" d="M41.2 44v3.6"/><path id="XMLID_58_" class="st4" d="M45.9 44v3.6"/><path id="XMLID_57_" class="st4" d="M50.6 44v3.6"/></g><path id="XMLID_64_" class="st2" d="M50.6 42V11.4c0-.1-.1-.2-.2-.2H13.2c-.1 0-.2.1-.2.2V42"/><path id="XMLID_65_" class="st2" d="M12.9 16.5h37.7"/><path id="XMLID_72_" class="st2" d="M16.6 13.6h2.5"/><path id="XMLID_62_" class="st2" d="M20.6 13.6h2.5"/><path id="XMLID_80_" class="st2" d="M24.6 13.6h2.5"/><path id="XMLID_82_" class="st2" d="M45.8 29.6H17.6V20"/><path id="XMLID_83_" class="st2" d="M17.6 40.4v-6.6h6.7"/><path id="XMLID_81_" class="st2" d="M27.6 40.4v-6.6h6.7"/><path id="XMLID_84_" class="st2" d="M37.6 40.4v-6.6h6.7"/></g><g id="XMLID_73_" class="st0"><path id="XMLID_76_" class="st2" d="M44.6 13c0-1.2-.9-2.1-2.1-2.1H21.6c-1.2 0-2.1.9-2.1 2.1v38c0 1.2.9 2.1 2.1 2.1h20.9c1.2 0 2.1-.9 2.1-2.1V13z"/><path id="XMLID_91_" class="st2" d="M19.4 17.3h25.2"/><path id="XMLID_90_" class="st2" d="M28 14.2h8"/><path id="XMLID_89_" class="st2" d="M19.4 46.8h25.2"/><g id="XMLID_346_" class="st3"><path id="XMLID_357_" class="st4" d="M25.3 39.4V36c0-.3.2-.6.5-.7l4.3-1.5v-2.4"/><path id="XMLID_355_" class="st4" d="M38.7 39.4V36c0-.3-.2-.6-.5-.7l-4.3-1.5v-2.4"/><path id="XMLID_354_" class="st4" d="M35.2 26c0-1.8-1.4-3.2-3.2-3.2-1.8 0-3.2 1.4-3.2 3.2l.3 3.9c0 .5.3 1 .8 1.2l1.6 1h1l1.6-1c.5-.2.8-.7.8-1.2l.3-3.9z"/><path id="XMLID_347_" class="st4" d="M30.1 33.8l1.2 1.4h1.4l1.3-1.4"/></g><path id="XMLID_86_" class="st2" d="M22.6 39.4h19.2"/></g><g id="XMLID_122_" class="st0"><path id="XMLID_113_" class="st2" d="M52 14.1c0 1-.4 1.8-1 2.5-.6.6-1.5 1-2.5 1s-1.8-.4-2.5-1c-.6-.6-1-1.5-1-2.5s.4-1.8 1-2.5c.6-.6 1.5-1 2.5-1s1.8.4 2.5 1c.6.7 1 1.6 1 2.5z"/><g id="XMLID_111_" class="st3"><path id="XMLID_94_" class="st4" d="M27.6 41.9h-1.5V20.7c0-3.9 2.2-7.4 5.7-9.1 3.5 1.7 5.7 5.2 5.7 9.1v21.2H36"/><path id="XMLID_67_" class="st4" d="M22.5 44.9h-5v-9.2c0-1.7 1-3.2 2.5-3.9 1.5.7 2.5 2.3 2.5 3.9v9.2z"/><path id="XMLID_118_" class="st4" d="M18.2 47v3.6c0 1.2.7 2.3 1.8 2.9 1.1-.5 1.8-1.6 1.8-2.9V47"/><path id="XMLID_120_" class="st4" d="M30 47v3.6c0 1.2.7 2.3 1.8 2.9 1.1-.5 1.8-1.6 1.8-2.9V47"/><path id="XMLID_121_" class="st4" d="M41.8 47v3.6c0 1.2.7 2.3 1.8 2.9 1.1-.5 1.8-1.6 1.8-2.9V47"/><path id="XMLID_71_" class="st4" d="M46 44.9h-5v-9.2c0-1.7 1-3.2 2.5-3.9 1.5.7 2.5 2.3 2.5 3.9v9.2z"/><path id="XMLID_88_" class="st4" d="M34.2 44.9h-5v-9.2c0-1.7 1-3.2 2.5-3.9 1.5.7 2.5 2.3 2.5 3.9v9.2z"/><path id="XMLID_93_" class="st4" d="M22.5 38.4l3.6-3.9"/><path id="XMLID_92_" class="st4" d="M22.5 42l3.6-3.8"/><path id="XMLID_96_" class="st4" d="M41.2 38.4l-3.6-3.9"/><path id="XMLID_95_" class="st4" d="M41.2 42l-3.6-3.8"/><circle id="XMLID_66_" class="st4" cx="31.8" cy="23.7" r="2.3"/><path id="XMLID_98_" class="st4" d="M26.8 16.8h10"/><path id="XMLID_97_" class="st4" d="M17.9 39.1h4.9"/><path id="XMLID_100_" class="st4" d="M29.6 39.1h5"/><path id="XMLID_102_" class="st4" d="M41.4 39.1h5"/></g><path id="XMLID_117_" class="st2" d="M50 27.5c1.6 0 3.1.7 4.1 1.7 1.1 1.1 1.7 2.5 1.7 4.1 0 1.6-.7 3.1-1.7 4.1"/><path id="XMLID_116_" class="st2" d="M48.9 30.6c.7-.7 1.1-1.6 1.1-2.7 0-1-.4-2-1.1-2.7-.7-.7-1.6-1.1-2.7-1.1-1 0-2 .4-2.7 1.1-.7.7-1.1 1.6-1.1 2.7h-2.6"/><g id="XMLID_115_" class="st3"><path id="XMLID_112_" class="st4" d="M8.2 22.8c0-.8.3-1.5.9-2.1.5-.5 1.3-.9 2.1-.9s1.5.3 2.1.9c.5.5.9 1.3.9 2.1s-.3 1.5-.9 2.1"/><path id="XMLID_114_" class="st4" d="M13.9 21.7c0-2.2 1.8-4 4-4s4 1.8 4 4h2.4"/></g></g><g id="XMLID_129_" class="st0"><g id="XMLID_124_" class="st3"><path id="XMLID_136_" class="st4" d="M54.3 25.2c0-.7-.5-1.2-1.2-1.2H41.3c-.7 0-1.2.5-1.2 1.2v21.6c0 .7.5 1.2 1.2 1.2h11.8c.7 0 1.2-.5 1.2-1.2V25.2z"/><path id="XMLID_134_" class="st4" d="M40.1 29.7h14.2"/><path id="XMLID_133_" class="st4" d="M44.9 26.9h4.6"/><path id="XMLID_132_" class="st4" d="M40.1 43.4h14.2"/></g><g id="XMLID_243_" class="st3"><path id="XMLID_126_" class="st4" d="M37.6 41.5h-27c-.5 0-1-.4-1-1V17c0-.5.4-1 1-1h39c.5 0 1 .4 1 1v4.4"/><path id="XMLID_241_" class="st4" d="M9.7 36h27.9"/><path id="XMLID_242_" class="st4" d="M19.9 41v7"/><path id="XMLID_244_" class="st4" d="M16.3 48h21.3"/></g><path id="XMLID_127_" class="st5" d="M14.4 21.4h23.3"/><path id="XMLID_125_" class="st5" d="M14.4 26.9h23.3"/><path id="XMLID_128_" class="st5" d="M14.4 32.4h23.3"/><path id="XMLID_131_" class="st5" d="M42.3 33.8h10.9"/><path id="XMLID_130_" class="st5" d="M42.3 39.3h10.9"/></g><g id="XMLID_138_" class="st0"><path id="XMLID_144_" class="st2" d="M50.9 52.9V11.3c0-.1-.1-.2-.2-.2H13.3c-.1 0-.2.1-.2.2v41.6"/><path id="XMLID_143_" class="st2" d="M13.1 16.4h37.8"/><path id="XMLID_142_" class="st2" d="M16.9 13.5h2.5"/><path id="XMLID_141_" class="st2" d="M20.9 13.5h2.5"/><path id="XMLID_140_" class="st2" d="M24.9 13.5h2.5"/><path id="XMLID_139_" class="st2" d="M46 32H17.9V20"/><path id="XMLID_163_" class="st5" d="M47.4 52.9c0-4.3-1.7-8.2-4.6-11-2.8-2.8-6.7-4.6-11-4.6s-8.2 1.7-11 4.6c-2.8 2.8-4.6 6.7-4.6 11"/><g id="XMLID_162_" class="st3"><path id="XMLID_135_" class="st4" d="M43.4 52.9v-1.2l-3.9-.6c-.2-.8-.5-1.6-1-2.3l2.4-3.2-1.8-1.8-3.2 2.4c-.7-.4-1.5-.8-2.3-1l-.6-3.9h-2.5l-.5 3.9c-.8.2-1.6.5-2.3 1l-3.2-2.4-1.8 1.7 2.4 3.2c-.4.7-.8 1.5-1 2.3l-3.9.6v1.3"/><path id="XMLID_77_" class="st4" d="M28.2 52.9c0-2 1.6-3.5 3.5-3.5 2 0 3.5 1.6 3.5 3.5"/></g></g><g id="XMLID_166_" class="st0"><path id="XMLID_146_" class="st2" d="M52.2 52.6c.1 0 .3-.1.3-.3V11.7c0-.1-.1-.3-.3-.3H11.8c-.1 0-.3.1-.3.3v40.6c0 .1.1.3.3.3h40.4z"/><path id="XMLID_185_" class="st2" d="M11.5 18.6h41"/><path id="XMLID_184_" class="st2" d="M15.4 14.8h2.5"/><path id="XMLID_183_" class="st2" d="M19.6 14.8h2.5"/><path id="XMLID_182_" class="st2" d="M23.8 14.8h2.5"/><g id="XMLID_160_" class="st3"><path id="XMLID_165_" class="st4" d="M43.6 36.6v-2.4l-3.9-.6c-.2-.8-.5-1.6-1-2.3l2.3-3.1-1.7-1.7-3.1 2.3c-.7-.4-1.5-.8-2.3-1l-.5-3.8H31l-.6 3.9c-.8.2-1.6.5-2.3.9L25 26.4l-1.7 1.7 2.3 3.1c-.4.7-.8 1.5-1 2.3l-3.9.6v2.4l3.9.6c.2.8.5 1.6.9 2.3l-2.3 3.1 1.7 1.7 3.1-2.3c.7.4 1.5.8 2.3 1l.6 3.9h2.4l.6-3.9c.8-.2 1.6-.5 2.3-.9l3.1 2.3 1.7-1.7-2.3-3.1c.4-.7.8-1.5 1-2.3l3.9-.6z"/><path id="XMLID_167_" class="st4" d="M35.7 35.3c0 1-.4 1.8-1 2.5-.6.6-1.5 1-2.5 1s-1.8-.4-2.5-1c-.6-.6-1-1.5-1-2.5s.4-1.8 1-2.5c.6-.6 1.5-1 2.5-1"/></g></g><g id="XMLID_99_" class="st0"><g id="XMLID_168_" class="st3"><path id="XMLID_170_" class="st4" d="M44 31.5v-5.1h2.2c.1 0 .2-.1.2-.2v-5.8c0-.1-.1-.2-.2-.2H34.6c-.1 0-.2.1-.2.2v5.8c0 .1.1.2.2.2h2.2v5.1c-4.9 1.7-8.3 6.6-7.5 12.2.7 5.1 4.8 9.1 9.8 9.7 6.8.8 12.6-4.5 12.6-11.2-.1-5-3.3-9.1-7.7-10.7z"/><path id="XMLID_169_" class="st4" d="M36.9 26.4h2.4"/></g><g id="XMLID_181_" class="st3"><path id="XMLID_171_" class="st4" d="M15.8 53.5c-1.9 0-3.4-1.5-3.4-3.4V20.5h6.8v29.6c0 1.8-1.6 3.4-3.4 3.4z"/><path id="XMLID_173_" class="st4" d="M12.4 24.9h3.4"/><path id="XMLID_172_" class="st4" d="M12.4 29.3h3.4"/><path id="XMLID_174_" class="st4" d="M12.4 33.7h3.4"/><path id="XMLID_175_" class="st4" d="M12.4 33.7h3.4"/><path id="XMLID_176_" class="st4" d="M12.4 38.2h3.4"/><path id="XMLID_177_" class="st4" d="M12.4 42.6h3.4"/><path id="XMLID_178_" class="st4" d="M12.4 47h3.4"/></g><path id="XMLID_189_" class="st2" d="M15.8 18.3v-4c0-2.1 1.7-3.7 3.8-3.7 2.1 0 3.8 1.7 3.8 3.8V21c0 2.1 1.7 3.9 3.9 3.9 2.1 0 3.9-1.7 3.9-3.9v-5.8c0-2.6 2.1-4.7 4.7-4.7s4.7 2.1 4.7 4.7v2.5"/><circle id="XMLID_187_" class="st2" cx="40.3" cy="41.8" r="5.2"/><path id="XMLID_191_" class="st2" d="M39.3 41.8h2.1"/></g><g id="XMLID_179_" class="st0"><g id="XMLID_224_" class="st3"><path id="XMLID_234_" class="st4" d="M55.4 53.2H8.6c-.1 0-.2-.1-.2-.2v-8.5c0-.1.1-.2.2-.2h46.8c.1 0 .2.1.2.2V53c0 .1-.1.2-.2.2z"/><path id="XMLID_233_" class="st4" d="M12.9 44.3v3.6"/><path id="XMLID_232_" class="st4" d="M17.6 44.3v3.6"/><path id="XMLID_231_" class="st4" d="M22.4 44.3v3.6"/><path id="XMLID_230_" class="st4" d="M27.1 44.3v3.6"/><path id="XMLID_229_" class="st4" d="M31.8 44.3v3.6"/><path id="XMLID_228_" class="st4" d="M36.5 44.3v3.6"/><path id="XMLID_227_" class="st4" d="M41.2 44.3v3.6"/><path id="XMLID_226_" class="st4" d="M45.9 44.3v3.6"/><path id="XMLID_225_" class="st4" d="M50.6 44.3v3.6"/></g><path id="XMLID_186_" class="st2" d="M52.2 25.7H11.7c-.1 0-.2-.1-.2-.2V11c0-.1.1-.2.2-.2h40.5c.1 0 .2.1.2.2v14.5c0 .2-.1.2-.2.2z"/><g id="XMLID_192_" class="st3"><path id="XMLID_193_" class="st4" d="M14.5 15.7v-2.3h6.9v2.3"/><path id="XMLID_197_" class="st4" d="M17.9 13.5v6"/></g><path id="XMLID_199_" class="st2" d="M24.2 13.9h24.7"/><path id="XMLID_198_" class="st2" d="M24.2 18.3h24.7"/><path id="XMLID_200_" class="st2" d="M14.3 22.7h34.6"/><path id="XMLID_203_" class="st2" d="M21.8 40H11.7c-.1 0-.2-.1-.2-.2V29.7c0-.1.1-.2.2-.2h10.1c.1 0 .2.1.2.2v10.1c0 .1-.1.2-.2.2z"/><path id="XMLID_207_" class="st2" d="M11.5 39.9L22 29.7"/><path id="XMLID_208_" class="st2" d="M11.5 29.7L22 39.9"/><path id="XMLID_210_" class="st2" d="M37 40H26.9c-.1 0-.2-.1-.2-.2V29.7c0-.1.1-.2.2-.2H37c.1 0 .2.1.2.2v10.1c0 .1-.1.2-.2.2z"/><path id="XMLID_209_" class="st2" d="M26.7 39.9l10.5-10.2"/><path id="XMLID_205_" class="st2" d="M26.7 29.7l10.5 10.2"/><path id="XMLID_213_" class="st2" d="M52.2 40H42.1c-.1 0-.2-.1-.2-.2V29.7c0-.1.1-.2.2-.2h10.1c.1 0 .2.1.2.2v10.1c0 .1-.1.2-.2.2z"/><path id="XMLID_212_" class="st2" d="M41.9 39.9l10.5-10.2"/><path id="XMLID_211_" class="st2" d="M41.9 29.7l10.5 10.2"/></g><g id="XMLID_220_" class="st0"><path id="XMLID_239_" class="st2" d="M52.2 52.6c.1 0 .3-.1.3-.3V11.7c0-.1-.1-.3-.3-.3H11.8c-.1 0-.3.1-.3.3v40.6c0 .1.1.3.3.3h40.4z"/><path id="XMLID_238_" class="st2" d="M11.5 18.6h41"/><path id="XMLID_236_" class="st2" d="M15.4 14.8h2.5"/><path id="XMLID_235_" class="st2" d="M19.6 14.8h2.5"/><path id="XMLID_222_" class="st2" d="M23.8 14.8h2.5"/><path id="XMLID_218_" class="st5" d="M17.1 36.9c0-2.1.4-4 1.2-5.8.8-1.8 1.8-3.4 3.2-4.7 1.3-1.3 2.9-2.4 4.7-3.2C28 22.4 29.9 22 32 22c2.1 0 4 .4 5.8 1.2 1.8.8 3.4 1.8 4.7 3.2 1.3 1.3 2.4 2.9 3.2 4.7"/><circle id="XMLID_219_" class="st2" cx="32" cy="36.9" r="2"/><path id="XMLID_240_" class="st2" d="M42.4 36.9c0 5.7-4.7 10.4-10.4 10.4s-10.4-4.7-10.4-10.4S26.3 26.5 32 26.5c2.8 0 5.4 1.1 7.3 3"/><path id="XMLID_221_" class="st2" d="M34 36l13.2-6.6"/></g><g id="XMLID_271_" class="st0"><path id="XMLID_216_" class="st2" d="M34.4 50.2c0 1.1-.9 2-2 2h-20c-1.1 0-2-.9-2-2V13.8c0-1.1.9-2 2-2h20c1.1 0 2 .9 2 2v36.4z"/><path id="XMLID_253_" class="st2" d="M10.3 17.9h24.1"/><path id="XMLID_252_" class="st2" d="M18.5 15h7.7"/><path id="XMLID_251_" class="st2" d="M10.3 46.2h24.1"/><g id="XMLID_217_" class="st3"><path id="XMLID_257_" class="st4" d="M36.3 49.4h1.8l.9-5.9c1.3-.3 2.4-.8 3.5-1.4l4.8 3.6 2.6-2.6-3.6-4.8c.7-1.1 1.2-2.2 1.5-3.5l5.9-.9v-3.7l-5.9-.9c-.3-1.2-.8-2.4-1.4-3.5L50 21l-2.6-2.6-4.8 3.6c-1.1-.7-2.2-1.2-3.5-1.5l-.8-5.9h-1.9"/><path id="XMLID_254_" class="st4" d="M36.3 26.7c2.9 0 5.3 2.4 5.3 5.3s-2.4 5.3-5.3 5.3"/></g><path id="XMLID_259_" class="st2" d="M13.5 23.2h2.4"/><path id="XMLID_195_" class="st2" d="M18.5 23.2h2.4"/><path id="XMLID_261_" class="st2" d="M23.5 23.2h2.4"/><path id="XMLID_262_" class="st2" d="M28.5 23.2h2.4"/><path id="XMLID_266_" class="st2" d="M13.6 28.2H16"/><path id="XMLID_265_" class="st2" d="M18.6 28.2H21"/><path id="XMLID_264_" class="st2" d="M23.6 28.2H26"/><path id="XMLID_263_" class="st2" d="M28.6 28.2H31"/><path id="XMLID_270_" class="st2" d="M13.7 33.2h2.4"/><path id="XMLID_269_" class="st2" d="M18.7 33.2h2.4"/><path id="XMLID_268_" class="st2" d="M23.7 33.2h2.4"/><path id="XMLID_267_" class="st2" d="M28.7 33.2h2.4"/><path id="XMLID_278_" class="st2" d="M13.9 42.3h2.4"/><path id="XMLID_277_" class="st2" d="M18.9 42.3h2.4"/><path id="XMLID_276_" class="st2" d="M23.9 42.3h2.4"/><path id="XMLID_275_" class="st2" d="M28.9 42.3h2.4"/></g><g id="XMLID_287_" class="st0"><path id="XMLID_273_" class="st2" d="M38.7 53.7H18c-.1 0-.2-.1-.2-.2V30.6c0-.1.1-.2.2-.2h20.7c.1 0 .2.1.2.2v22.9c0 .1-.1.2-.2.2z"/><path id="XMLID_279_" class="st2" d="M17.8 38.2h21.1"/><path id="XMLID_274_" class="st2" d="M17.8 46.2h21.1"/><path id="XMLID_281_" class="st2" d="M21.9 50.2h2.2"/><path id="XMLID_280_" class="st2" d="M27.1 50.2h2.2"/><path id="XMLID_282_" class="st2" d="M32.4 50.2h2.1"/><g id="XMLID_385_" class="st3"><path id="XMLID_286_" class="st4" d="M49 41.5v-3.9h3c.1 0 .2-.1.1-.2l-6.8-6.8h-.2l-3.9 3.9"/><path id="XMLID_387_" class="st6" d="M49 53.7V42.5"/><path id="XMLID_293_" class="st6" d="M44 53.7V38.5"/></g><path id="XMLID_290_" class="st2" d="M16.2 25.5c-.7-1.4-1.1-3-1.1-4.7 0-2.9 1.2-5.5 3.1-7.4 1.9-1.9 4.5-3.1 7.4-3.1 2.9 0 5.5 1.2 7.4 3.1 1.9 1.9 3.1 4.5 3.1 7.4"/><path id="XMLID_289_" class="st2" d="M52.9 32.8c1-1.5 1.6-3.3 1.6-5.2 0-5.2-4.2-9.4-9.4-9.4h-9.2"/><path id="XMLID_292_" class="st2" d="M15.6 35c-3.3 0-6.1-2.7-6.1-6.1s2.7-6.1 6.1-6.1"/></g><g id="XMLID_308_" class="st0"><g id="XMLID_248_" class="st3"><path id="XMLID_250_" class="st4" d="M39 34.1l3.4-.5v-2.2L39 31c-.2-.7-.5-1.4-.8-2l2.1-2.8-1.5-1.5-2.8 2.1c-.6-.4-1.3-.7-2-.8l-.5-3.4h-2.2l-.5 3.4c-.7.2-1.4.5-2 .8L26 24.6l-1.5 1.5 2.1 2.8c-.4.6-.7 1.3-.8 2l-3.4.5v2.2l3.4.5c.2.7.5 1.4.8 2l-2.1 2.8 1.5 1.5 2.8-2.1c.6.4 1.3.7 2 .8l.5 3.4"/><circle id="XMLID_249_" class="st4" cx="32.3" cy="32.5" r="3.1"/></g><g id="XMLID_304_" class="st3"><path id="XMLID_307_" class="st4" d="M50.4 21.4v-3.9h3c.1 0 .2-.1.1-.2l-6.8-6.8h-.2l-6.8 6.8c-.1.1 0 .2.1.2h3v4.1"/><path id="XMLID_306_" class="st6" d="M50.4 33.6V21.4"/></g><g id="XMLID_309_" class="st3"><path id="XMLID_311_" class="st4" d="M13.8 42.6v3.9h-3c-.1 0-.2.1-.1.2l6.8 6.8h.2l6.8-6.8c.1-.1 0-.2-.1-.2h-3v-4.1"/><path id="XMLID_310_" class="st6" d="M13.8 30.4v12.2"/></g><path id="XMLID_305_" class="st2" d="M20.9 25.2c-.6-1.2-.9-2.5-.9-3.9 0-2.4 1-4.6 2.6-6.2 1.6-1.6 3.8-2.6 6.2-2.6 2.4 0 4.6 1 6.2 2.6 1.6 1.6 2.6 3.8 2.6 6.2"/><path id="XMLID_291_" class="st2" d="M34.4 49.3c-.6-1.2-.9-2.5-.9-3.9 0-2.4 1-4.6 2.6-6.2 1.6-1.6 3.8-2.6 6.2-2.6 2.4 0 4.6 1 6.2 2.6 1.6 1.6 2.6 3.8 2.6 6.2h4.4"/><path id="XMLID_303_" class="st2" d="M19.7 20.5c-1.6 0-3 .6-4.1 1.7-1 1-1.7 2.5-1.7 4.1H8.6"/></g><g id="XMLID_300_" class="st0"><path id="XMLID_295_" class="st2" d="M35.2 31.1V29c2.3-1.5 3.8-4 3.8-7 0-4.6-3.7-8.3-8.3-8.3s-8.3 3.7-8.3 8.3c0 2.9 1.5 5.5 3.8 7v2.1"/><g id="XMLID_298_" class="st3"><path id="XMLID_299_" class="st6" d="M18.3 22.4c0-6.8 5.5-12.4 12.4-12.4S43 15.6 43 22.4"/></g><g id="XMLID_294_" class="st3"><path id="XMLID_297_" class="st4" d="M23.1 33.2h-6.9v20.6c0 .1.1.1.1.1H47c.1 0 .1-.1.1-.1v-19l3.2-4h-7l-2.2 2.4h-18z"/><path id="XMLID_369_" class="st4" d="M16.2 33.2l-2.6-3.8v-.1h4.9l2.9 3.9"/><path id="XMLID_370_" class="st4" d="M41.2 53.9V35"/><path id="XMLID_386_" class="st4" d="M45.7 35H43"/></g><path id="XMLID_296_" class="st2" d="M33.3 21.6c0 .7-.3 1.4-.8 1.9s-1.1.8-1.9.8c-.7 0-1.4-.3-1.9-.8-.4-.5-.7-1.1-.7-1.9 0-.7.3-1.4.8-1.9s1.1-.8 1.9-.8c.7 0 1.4.3 1.9.8.4.5.7 1.2.7 1.9z"/><path id="XMLID_301_" class="st2" d="M30.7 24.2v7"/></g><g id="XMLID_359_" class="st0"><g id="XMLID_339_" class="st3"><path id="XMLID_351_" class="st4" d="M55.4 54.1H8.6c-.1 0-.2-.1-.2-.2v-8.5c0-.1.1-.2.2-.2h46.8c.1 0 .2.1.2.2v8.5c0 .2-.1.2-.2.2z"/><path id="XMLID_350_" class="st4" d="M12.9 45.3v3.6"/><path id="XMLID_349_" class="st4" d="M17.6 45.3v3.6"/><path id="XMLID_348_" class="st4" d="M22.4 45.3v3.6"/><path id="XMLID_345_" class="st4" d="M27.1 45.3v3.6"/><path id="XMLID_344_" class="st4" d="M31.8 45.3v3.6"/><path id="XMLID_343_" class="st4" d="M36.5 45.3v3.6"/><path id="XMLID_342_" class="st4" d="M41.2 45.3v3.6"/><path id="XMLID_341_" class="st4" d="M45.9 45.3v3.6"/><path id="XMLID_340_" class="st4" d="M50.6 45.3v3.6"/></g><g id="XMLID_322_" class="st3"><path id="XMLID_314_" class="st4" d="M16 42.2V18.5c0-.1.1-.2.2-.2H47c.1 0 .2.1.2.2v23.7"/><path id="XMLID_318_" class="st4" d="M16 38.4h31.5"/><path id="XMLID_316_" class="st4" d="M16 34.3c1.2-1.6 3.1-2.6 5.2-2.6 3.6 0 6.6 2.9 6.6 6.6"/><path id="XMLID_321_" class="st4" d="M25.6 34.3c1.2-1.6 3.1-2.6 5.2-2.6 3.6 0 6.6 2.9 6.6 6.6"/><circle id="XMLID_319_" class="st4" cx="38.5" cy="24.7" r="2.9"/><path id="XMLID_323_" class="st4" d="M39 35h5.6"/></g><path id="XMLID_326_" class="st2" d="M12.1 40.4v1.8"/><path id="XMLID_325_" class="st2" d="M12.1 35.3v1.8"/><path id="XMLID_327_" class="st2" d="M12.1 30.2V32"/><path id="XMLID_328_" class="st2" d="M12.1 25.1v1.8"/><path id="XMLID_331_" class="st2" d="M12.1 20v1.8"/><path id="XMLID_333_" class="st2" d="M12.1 15v1.7"/><path id="XMLID_335_" class="st2" d="M12.1 9.9v1.8"/><path id="XMLID_358_" class="st2" d="M51.1 40.4v1.8"/><path id="XMLID_356_" class="st2" d="M51.1 35.3v1.8"/><path id="XMLID_353_" class="st2" d="M51.1 30.2V32"/><path id="XMLID_352_" class="st2" d="M51.1 25.1v1.8"/><path id="XMLID_338_" class="st2" d="M51.1 20v1.8"/><path id="XMLID_337_" class="st2" d="M51.1 15v1.7"/><path id="XMLID_336_" class="st2" d="M51.1 9.9v1.8"/><path id="XMLID_360_" class="st2" d="M18.4 13.1h26.8"/><path id="XMLID_362_" class="st2" d="M43.2 10.1L46 13l-2.8 3.1"/><path id="XMLID_332_" class="st2" d="M20.4 10.1L17.6 13l2.8 3.1"/></g><g id="XMLID_388_" class="st0"><g id="XMLID_361_" class="st3"><path id="XMLID_384_" class="st4" d="M16.9 18.8l-1.5 2.6 16.8 19.1c.1.1.1.1.2 0l16.8-19.1-4.3-7.4H24.1"/><path id="XMLID_383_" class="st4" d="M15.4 21.4h33.8"/><path id="XMLID_382_" class="st4" d="M32.3 40.5l-7.7-17.6"/><path id="XMLID_381_" class="st4" d="M32.3 40.1l7.5-17.2"/><path id="XMLID_791_" class="st4" d="M32.3 22.9v17.2"/><path id="XMLID_377_" class="st4" d="M28.5 13.8l-4.4 6-1.2-1.5"/><path id="XMLID_374_" class="st4" d="M36.6 13.8l-4.5 6-3.9-5.1"/><path id="XMLID_373_" class="st4" d="M44.6 13.8l-4.4 6-4-5.1"/><g id="XMLID_364_"><path id="XMLID_372_" class="st4" d="M19.5 9.3v2.2"/><path id="XMLID_371_" class="st4" d="M23.6 11.7l-1.9 1.1"/><path id="XMLID_368_" class="st4" d="M23.6 16.4l-1.9-1.1"/><path id="XMLID_367_" class="st4" d="M19.5 18.8v-2.2"/><path id="XMLID_366_" class="st4" d="M15.5 16.4l1.9-1.1"/><path id="XMLID_365_" class="st4" d="M15.4 11.7l1.9 1.1"/></g></g><path id="XMLID_413_" class="st2" d="M43 32.7h8.8c.1 0 .3.1.3.3v21.4c0 .1-.1.3-.3.3H12.3c-.1 0-.3-.1-.3-.3V33c0-.1.1-.3.3-.3h9"/><path id="XMLID_390_" class="st2" d="M15.3 37.2h2.8"/><path id="XMLID_392_" class="st2" d="M15.3 42.8h2.8"/><path id="XMLID_393_" class="st2" d="M20.3 42.8h2.8"/><path id="XMLID_394_" class="st2" d="M25.3 42.8h2.8"/><path id="XMLID_397_" class="st2" d="M30.3 42.8h2.9"/><path id="XMLID_398_" class="st2" d="M35.4 42.8h2.8"/><path id="XMLID_402_" class="st2" d="M40.4 42.8h2.8"/><path id="XMLID_403_" class="st2" d="M45.4 42.8h2.9"/><path id="XMLID_410_" class="st2" d="M15.3 46.8h2.8"/><path id="XMLID_409_" class="st2" d="M20.3 46.8h2.8"/><path id="XMLID_408_" class="st2" d="M25.3 46.8h2.8"/><path id="XMLID_407_" class="st2" d="M30.3 46.8h2.9"/><path id="XMLID_406_" class="st2" d="M35.4 46.8h2.8"/><path id="XMLID_405_" class="st2" d="M40.4 46.8h2.8"/><path id="XMLID_404_" class="st2" d="M45.4 46.8h2.9"/><path id="XMLID_418_" class="st2" d="M15.3 50.8h2.8"/><path id="XMLID_416_" class="st2" d="M20.3 50.8h2.8"/><path id="XMLID_414_" class="st2" d="M25.2 50.8h13"/><path id="XMLID_412_" class="st2" d="M40.4 50.8h2.8"/><path id="XMLID_411_" class="st2" d="M45.4 50.8h2.9"/><path id="XMLID_389_" class="st2" d="M20.3 37.2h2.8"/><path id="XMLID_395_" class="st2" d="M40.4 37.2h2.8"/><path id="XMLID_396_" class="st2" d="M45.4 37.2h2.9"/></g><g id="XMLID_431_"><g id="XMLID_419_"><path id="XMLID_425_" class="st4" d="M52.5 15.2c.6 0 1 .4 1 1V41c0 .6-.4 1-1 1h-41c-.6 0-1-.4-1-1V16.2c0-.6.4-1 1-1h41z"/><path id="XMLID_423_" class="st4" d="M10.5 36.2h43"/><path id="XMLID_422_" class="st4" d="M21.3 41.4v7.4"/><path id="XMLID_421_" class="st4" d="M42.3 41.4v7.4"/><path id="XMLID_420_" class="st4" d="M17.5 48.8h28.7"/></g><g id="XMLID_428_"><path id="XMLID_426_" class="st4" d="M17.9 32.8V21.3c0-.5.4-.9.9-.9h6.1c.5 0 .9.4.9.9v11.6"/><path id="XMLID_427_" class="st4" d="M18.2 26.6h7.6"/><path id="XMLID_424_" class="st4" d="M32.2 32.8V21.3c0-.5.4-1 1-1h6.7c.5 0 1 .4 1 1v4.3c0 .5-.4 1-1 1h-7.6"/><path id="XMLID_429_" class="st4" d="M46.2 19.7v13.1"/></g><path id="XMLID_433_" class="st4" d="M44.6 20.4h3.3"/><path id="XMLID_430_" class="st4" d="M44.6 31.8h3.2"/></g><g id="XMLID_438_" class="st0"><g id="XMLID_434_" class="st3"><path id="XMLID_439_" class="st4" d="M42 23.4c.1 6.8-8.4 14.6-9.4 15.5-.1.1-.1.1-.2 0-1-.9-9.4-8.7-9.4-15.5 0-5.2 4.2-9.5 9.5-9.5s9.5 4.2 9.5 9.5z"/><circle id="XMLID_440_" class="st4" cx="32.5" cy="23.4" r="5.2"/></g><path id="XMLID_452_" class="st5" d="M22.3 32.7c-2.3-2.6-3.5-6-3.3-9.7.2-3.7 2-7 4.6-9.2 2.6-2.3 6-3.5 9.7-3.3 3.7.2 7 2 9.2 4.6 2.3 2.6 3.5 6 3.3 9.7-.2 3.7-2 7-4.6 9.2"/><g id="XMLID_435_" class="st3"><path id="XMLID_436_" class="st4" d="M54.2 53.6H9.8c-.1 0-.2-.1-.2-.2l-1-5c0-.1.1-.3.2-.3h20.1l1 1H34l1-1h20.1c.1 0 .3.1.2.3l-1 5c.1.1 0 .2-.1.2z"/><path id="XMLID_501_" class="st4" d="M15.3 23.7h-3.9c-.2 0-.3.1-.3.3v21.7"/><path id="XMLID_500_" class="st4" d="M52.9 45.7V24c0-.2-.1-.3-.3-.3h-4.2"/></g><path id="XMLID_437_" class="st2" d="M15.9 43.1h32.5v-7"/></g><g id="XMLID_446_" class="st0"><path id="XMLID_454_" class="st2" d="M51.8 45.5V11.6c0-.1-.1-.3-.3-.3h-40c-.1 0-.3.1-.3.3v40.6"/><path id="XMLID_453_" class="st2" d="M11.3 17.1h40.5"/><path id="XMLID_451_" class="st2" d="M15.3 14H18"/><path id="XMLID_450_" class="st2" d="M19.6 14h2.6"/><path id="XMLID_449_" class="st2" d="M23.9 14h2.6"/><path id="XMLID_442_" class="st2" d="M21.4 31.2h-5.1V20.9h29.6v5.2"/><path id="XMLID_445_" class="st2" d="M21.5 35.7h-5.2v7.1h7.9"/><path id="XMLID_460_" class="st2" d="M52.7 50.1l-2.5 2.5c-.1.1-.2.1-.3 0l-6.3-6.3c-.1-.1-.1-.2 0-.3l2.5-2.5c.1-.1.2-.1.3 0l6.3 6.3v.3z"/><path id="XMLID_458_" class="st2" d="M42.2 42.1l2.2 2.2"/><circle id="XMLID_455_" class="st2" cx="34.8" cy="34.2" r="11"/><path id="XMLID_443_" class="st2" d="M30.7 33.5l3 3 5.1-5.2"/></g><g id="XMLID_473_" class="st0"><g id="XMLID_475_" class="st3"><path id="XMLID_489_" class="st4" d="M33.7 40.1v-9.7c0-.8-.7-1.5-1.5-1.5s-1.5.7-1.5 1.5v11.9"/><path id="XMLID_488_" class="st4" d="M36.6 37.6v-2.5c0-.8-.7-1.5-1.5-1.5s-1.5.7-1.5 1.5v2.5"/><path id="XMLID_483_" class="st4" d="M39.6 40.1v-3.5c0-.8-.7-1.5-1.5-1.5s-1.5.7-1.5 1.5v3.5"/><path id="XMLID_481_" class="st4" d="M39.6 39.5v-1.4c0-.8.7-1.5 1.5-1.5s1.5.7 1.5 1.5v8.3c0 .4-.2.7-.4 1L40.6 49c-.2.2-.4.5-.4.8v.4"/><path id="XMLID_478_" class="st4" d="M30.8 39.6h-2.1c-.5 0-1 .4-1 1v6.5c0 .5.3 1 .8 1.2l1.2.6c.5.2.8.7.8 1.2"/><path id="XMLID_477_" class="st4" d="M28.2 54.4v-3.7c0-.1.1-.2.2-.2h13.9c.1 0 .2.1.2.2v3.7"/></g><path id="XMLID_462_" class="st2" d="M29 31.4c-.4-.4-.8-.9-1-1.5-.2-.5-.4-1.2-.4-1.8 0-.6.1-1.2.4-1.8.2-.5.6-1 1-1.5.4-.4.9-.8 1.5-1 .5-.2 1.2-.4 1.8-.4.6 0 1.2.1 1.8.4.5.2 1 .6 1.5 1 .4.4.8.9 1 1.5.2.5.4 1.2.4 1.8 0 .6-.1 1.2-.4 1.8"/><path id="XMLID_463_" class="st5" d="M19.1 28.3h6.3"/><path id="XMLID_456_" class="st5" d="M22.2 18.7l4.6 4.6"/><path id="XMLID_459_" class="st5" d="M32.3 15.2l.1 5.5"/><path id="XMLID_464_" class="st5" d="M41.2 17.9l-4.4 4.5"/><path id="XMLID_465_" class="st5" d="M44.9 28.3H39"/><circle id="XMLID_466_" class="st2" cx="15.3" cy="28.3" r="2.1"/><circle id="XMLID_467_" class="st2" cx="32.2" cy="11.6" r="2.1"/><circle id="XMLID_469_" class="st2" cx="19.8" cy="16.1" r="2.1"/><circle id="XMLID_470_" class="st2" cx="43.6" cy="15.2" r="2.1"/><circle id="XMLID_468_" class="st2" cx="48.7" cy="28.3" r="2.1"/></g><g id="XMLID_498_" class="st0"><g id="XMLID_513_" class="st3"><path id="XMLID_523_" class="st4" d="M55.4 53.8H8.6c-.1 0-.2-.1-.2-.2v-8.5c0-.1.1-.2.2-.2h46.8c.1 0 .2.1.2.2v8.5c0 .1-.1.2-.2.2z"/><path id="XMLID_522_" class="st4" d="M12.9 44.9v3.6"/><path id="XMLID_521_" class="st4" d="M17.6 44.9v3.6"/><path id="XMLID_520_" class="st4" d="M22.4 44.9v3.6"/><path id="XMLID_519_" class="st4" d="M27.1 44.9v3.6"/><path id="XMLID_518_" class="st4" d="M31.8 44.9v3.6"/><path id="XMLID_517_" class="st4" d="M36.5 44.9v3.6"/><path id="XMLID_516_" class="st4" d="M41.2 44.9v3.6"/><path id="XMLID_515_" class="st4" d="M45.9 44.9v3.6"/><path id="XMLID_514_" class="st4" d="M50.6 44.9v3.6"/></g><path id="XMLID_512_" class="st2" d="M49.8 42.9V10.5c0-.1-.1-.3-.3-.3H14.1c-.1 0-.3.1-.3.3v32.4"/><path id="XMLID_511_" class="st2" d="M13.8 15.9h36"/><path id="XMLID_510_" class="st2" d="M17.7 12.8h1.9"/><path id="XMLID_496_" class="st2" d="M21.7 12.8h1.9"/><path id="XMLID_497_" class="st2" d="M25.7 12.8h1.9"/><path id="XMLID_471_" class="st2" d="M27.9 42.6V28.3l3.6-1.8v-5.9l-3.1-1.8c-.1 0-.2 0-.2.1v4.5L25.1 25 22 23.5V19c0-.1-.1-.2-.2-.1l-3.1 1.8v5.9l3.9 1.9v14.1"/><g id="XMLID_491_" class="st3"><path id="XMLID_494_" class="st4" d="M43.2 42.6v-5.3h-4.9v5.3"/><path id="XMLID_509_" class="st4" d="M45.4 37.3H36"/><path id="XMLID_495_" class="st4" d="M39.2 37.1V23.3h-.6l.3-4.7h3.6l.4 4.7h-.6v13.8"/></g></g><g id="XMLID_492_" class="st0"><path id="XMLID_526_" class="st2" d="M40.3 52.1H23.7l-1.1-2.4v-7.1h18.8v7z"/><path id="XMLID_525_" class="st2" d="M29.4 52.1h5.3v3h-5.3z"/><path id="XMLID_524_" class="st2" d="M45.3 28.1c0-7.3-5.9-13.3-13.3-13.3s-13.3 5.9-13.3 13.3c0 4.7 2.4 8.8 6.1 11.1v3.3h14.4v-3.3c3.7-2.3 6.1-6.4 6.1-11.1z"/><path id="XMLID_508_" class="st2" d="M22.6 47.3h8.2"/><g id="XMLID_504_" class="st3"><path id="XMLID_506_" class="st6" d="M15.5 39.7c-2.1-3.1-3.3-6.9-3.3-11C12.2 17.8 21.1 9 32 9s19.8 8.9 19.8 19.8c0 4.4-1.5 8.5-3.9 11.8"/></g><path id="XMLID_493_" class="st2" d="M33.9 18.8l-5 9h6.6l-6.1 9.1"/></g><g id="XMLID_542_" class="st0"><path id="XMLID_535_" class="st2" d="M51.1 51.4c.1 0 .3-.1.3-.3V12.8c0-.1-.1-.3-.3-.3H12.9c-.1 0-.3.1-.3.3v38.3c0 .1.1.3.3.3h38.2z"/><path id="XMLID_534_" class="st2" d="M12.6 19.4h38.8"/><path id="XMLID_533_" class="st2" d="M16.3 15.7h2.4"/><path id="XMLID_532_" class="st2" d="M20.2 15.7h2.4"/><path id="XMLID_531_" class="st2" d="M24.2 15.7h2.4"/><circle id="XMLID_527_" class="st2" cx="22" cy="29.3" r="2.1"/><circle id="XMLID_528_" class="st2" cx="32" cy="43.5" r="2.1"/><circle id="XMLID_529_" class="st2" cx="42.1" cy="35" r="2.1"/><path id="XMLID_536_" class="st2" d="M22 33.9v11.7"/><path id="XMLID_530_" class="st2" d="M31.7 27.3v12.4"/><path id="XMLID_537_" class="st2" d="M42.1 39.1v6.5"/><path id="XMLID_540_" class="st2" d="M42.1 27.3v4.1"/></g><g id="XMLID_547_" class="st0"><g id="XMLID_551_" class="st3"><path id="XMLID_549_" class="st4" d="M41.7 20.7h10.8c.6 0 1 .4 1 1v24.8c0 .6-.4 1-1 1h-41c-.6 0-1-.4-1-1V21.7c0-.6.4-1 1-1h10.7"/><path id="XMLID_558_" class="st4" d="M10.5 41.7h43"/><path id="XMLID_556_" class="st4" d="M21.3 47v7.3"/><path id="XMLID_553_" class="st4" d="M42.3 47v7.3"/><path id="XMLID_552_" class="st4" d="M17.5 54.3h28.7"/></g><g id="XMLID_548_" class="st3"><path id="XMLID_538_" class="st4" d="M38.6 30.1H25.4c-.1 0-.2-.1-.2-.2V17.7c0-.1.1-.2.2-.2h13.1c.1 0 .2.1.2.2V30c.1.1 0 .1-.1.1z"/><path id="XMLID_545_" class="st4" d="M27.3 17.5v-3.2c0-2.6 2.1-4.7 4.7-4.7s4.7 2.1 4.7 4.7v3.2"/><circle id="XMLID_541_" class="st4" cx="32" cy="23.8" r="2.4"/></g><path id="XMLID_560_" class="st2" d="M41 27.7h6.3v9.4H17.5v-9.4h5.2"/><path id="XMLID_561_" class="st2" d="M21.3 32.8h1.6"/><path id="XMLID_550_" class="st2" d="M26.6 32.8h1.7"/><path id="XMLID_562_" class="st2" d="M31.9 32.8h1.7"/><path id="XMLID_563_" class="st2" d="M37.3 32.8h1.6"/><path id="XMLID_564_" class="st2" d="M42.6 32.8h1.7"/></g><g id="XMLID_581_" class="st0"><g id="XMLID_565_" class="st3"><path id="XMLID_568_" class="st4" d="M54.2 53.8H9.8c-.1 0-.2-.1-.2-.2l-1-5c0-.1.1-.3.2-.3h20.1l1 1H34l1-1h20.1c.1 0 .3.1.2.3l-1 5c.1.1 0 .2-.1.2z"/><path id="XMLID_567_" class="st4" d="M15.3 18.9h-3.9c-.2 0-.3.1-.3.3V46"/><path id="XMLID_566_" class="st4" d="M52.9 46V19.3c0-.2-.1-.3-.3-.3H49"/></g><path id="XMLID_557_" class="st2" d="M17.5 10.2h29.2v33.5H17.5z"/><path id="XMLID_237_" class="st2" d="M17.5 30.7l10-8.4 4 3.8 15.3-11.3"/><path id="XMLID_246_" class="st2" d="M20.8 28v15.8"/><path id="XMLID_223_" class="st2" d="M24 24.6v19.2"/><path id="XMLID_247_" class="st2" d="M27.3 22.7v21.1"/><path id="XMLID_554_" class="st2" d="M30.5 25.2v18.6"/><path id="XMLID_569_" class="st2" d="M33.7 24.6v19.2"/><path id="XMLID_570_" class="st2" d="M36.9 22v21.8"/><path id="XMLID_571_" class="st2" d="M40.2 19.7v24.1"/><path id="XMLID_572_" class="st2" d="M43.4 16.8v27"/><path id="XMLID_577_" class="st2" d="M17.5 15.8h22.8"/><path id="XMLID_579_" class="st2" d="M20.8 13.1h2.3"/><path id="XMLID_575_" class="st2" d="M24.8 13.1h2.3"/><path id="XMLID_580_" class="st2" d="M28.8 13.1h2.3"/></g></g><g id="Icon_text" class="st0"><g id="XMLID_55_" class="st3"><text id="XMLID_400_" transform="translate(-164.531 -76.958)" class="st7 st8 st9">CODING</text></g><g id="XMLID_85_" class="st3"><text id="XMLID_401_" transform="translate(-83.672 -76.958)" class="st7 st8 st9">WIREFRAMES</text></g><g id="XMLID_87_" class="st3"><text id="XMLID_417_" transform="translate(6.244 -76.958)" class="st7 st8 st9">UI/UX DESIGN</text></g><g id="XMLID_123_" class="st3"><text id="XMLID_444_" transform="translate(106.37 -76.958)" class="st7 st8 st9">STARTUP</text></g><g id="XMLID_137_" class="st3"><text id="XMLID_448_" transform="translate(190.736 -76.958)"><tspan x="0" y="0" class="st7 st8 st9">RESPONSIVE</tspan><tspan x="9.4" y="7" class="st7 st8 st9">DESIGN</tspan></text></g><g id="XMLID_164_" class="st3"><text id="XMLID_457_" transform="translate(-165.82 19)"><tspan x="0" y="0" class="st7 st8 st9">WEBSITE</tspan><tspan x="-11.5" y="7" class="st7 st8 st9">DEVELOPMENT</tspan></text></g><g id="XMLID_161_" class="st3"><text id="XMLID_461_" transform="translate(-67.236 19)"><tspan x="0" y="0" class="st7 st8 st9">WEB</tspan><tspan x="-18.8" y="7" class="st7 st8 st9">OPTIMIZATION</tspan></text></g><g id="XMLID_190_" class="st3"><text id="XMLID_472_" transform="translate(17.136 19)" class="st7 st8 st9">TESTING</text></g><g id="XMLID_194_" class="st3"><text id="XMLID_476_" transform="translate(108.602 19)" class="st7 st8 st9">LAYOUT</text></g><g id="XMLID_245_" class="st3"><text id="XMLID_479_" transform="translate(193.012 19)" class="st7 st8 st9">SPEEDTEST</text></g><g id="XMLID_272_" class="st3"><text id="XMLID_480_" transform="translate(-157.226 115.417)"><tspan x="0" y="0" class="st7 st8 st9">APP</tspan><tspan x="-20.2" y="7" class="st7 st8 st9">DEVELOPMENT</tspan></text></g><g id="XMLID_302_" class="st3"><text id="XMLID_482_" transform="translate(-72.19 115.417)"><tspan x="0" y="0" class="st7 st8 st9">CLOUD</tspan><tspan x="-4.6" y="7" class="st7 st8 st9">STORAGE</tspan></text></g><g id="XMLID_288_" class="st3"><text id="XMLID_484_" transform="translate(3.8 115.417)"><tspan x="0" y="0" class="st7 st8 st9">THINK OUTSIDE</tspan><tspan x="6.5" y="7" class="st7 st8 st9">OF THE BOX</tspan></text></g><g id="XMLID_312_" class="st3"><text id="XMLID_485_" transform="translate(110.55 115.417)"><tspan x="0" y="0" class="st7 st8 st9">CLOUD</tspan><tspan x="-9.8" y="7" class="st7 st8 st9">COMPUTING</tspan></text></g><g id="XMLID_363_" class="st3"><text id="XMLID_596_" transform="translate(196.549 115.417)"><tspan x="0" y="0" class="st7 st8 st9">CONTENT</tspan><tspan x="-4.7" y="7" class="st7 st8 st9">PLACEMENT</tspan></text></g><g id="XMLID_415_" class="st3"><text id="XMLID_597_" transform="translate(-158.021 212.167)"><tspan x="0" y="0" class="st7 st8 st9">WEB</tspan><tspan x="-6.5" y="7" class="st7 st8 st9">CODING</tspan></text></g><g id="XMLID_432_" class="st3"><text id="XMLID_598_" transform="translate(-64.51 212.167)"><tspan x="0" y="0" class="st7 st8 st9">API</tspan><tspan x="-14.4" y="7" class="st7 st8 st9">INTERFACE</tspan></text></g><g id="XMLID_441_" class="st3"><text id="XMLID_599_" transform="translate(23.89 212.167)"><tspan x="0" y="0" class="st7 st8 st9">WEB</tspan><tspan x="-15" y="7" class="st7 st8 st9">NAVIGATION</tspan></text></g><g id="XMLID_447_" class="st3"><text id="XMLID_600_" transform="translate(104.774 212.167)"><tspan x="0" y="0" class="st7 st8 st9">USABILITY</tspan><tspan x="3" y="7" class="st7 st8 st9">TESTING</tspan></text></g><g id="XMLID_490_" class="st3"><text id="XMLID_601_" transform="translate(204.57 212.166)"><tspan x="0" y="0" class="st7 st8 st9">USER</tspan><tspan x="-15.5" y="7" class="st7 st8 st9">INTERACTION</tspan></text></g><g id="XMLID_474_" class="st3"><text id="XMLID_602_" transform="translate(-157.552 306.417)"><tspan x="0" y="0" class="st7 st8 st9">SITE</tspan><tspan x="-19.8" y="7" class="st7 st8 st9">MAINTENANCE</tspan></text></g><g id="XMLID_499_" class="st3"><text id="XMLID_603_" transform="translate(-72.879 306.416)"><tspan x="0" y="0" class="st7 st8 st9">SMART </tspan><tspan x="-5" y="7" class="st7 st8 st9">SOLUTION</tspan></text></g><g id="XMLID_544_" class="st3"><text id="XMLID_604_" transform="translate(19.374 306.417)"><tspan x="0" y="0" class="st7 st8 st9">ADMIN</tspan><tspan x="-18.3" y="7" class="st7 st8 st9">CONTROL PANEL</tspan></text></g><g id="XMLID_546_" class="st3"><text id="XMLID_605_" transform="translate(108.613 306.416)"><tspan x="0" y="0" class="st7 st8 st9">SECURE</tspan><tspan x="3" y="7" class="st7 st8 st9">LOGIN</tspan></text></g><g id="XMLID_582_" class="st3"><text id="XMLID_606_" transform="translate(205.733 306.417)"><tspan x="0" y="0" class="st7 st8 st9">WEB</tspan><tspan x="-9.6" y="7" class="st7 st8 st9">ANALYSIS</tspan></text></g></g><g id="headline" class="st0"><circle id="XMLID_61_" cx="-133.5" cy="-208.4" r="18.3" display="inline" fill="#74e2f0"/><circle id="XMLID_60_" cx="-110.1" cy="-208.4" r="18.3" display="inline" fill="#fbda73"/><circle id="XMLID_63_" cx="-122.7" cy="-190.1" r="18.3" display="inline" fill="#f08e70"/><g id="XMLID_1_" class="st3"><text id="XMLID_607_" transform="translate(-183.755 -194.085)"><tspan x="0" y="0" fill="#231f20" font-family="Oswald-Bold" font-size="22.512">FLAT </tspan><tspan x="45.5" y="0" fill="#231f20" font-family="Oswald-Light" font-size="22.512">LINE </tspan><tspan x="83.9" y="0" fill="#231f20" font-family="Oswald-Bold" font-size="22.512">ICONS</tspan></text></g><g id="XMLID_2_" class="st3"><text id="XMLID_608_" transform="translate(66.042 -193.906)" fill="#231f20" font-family="Oswald-Light" font-size="16.174">WEB DESIGN &amp; DEVELOPMENT</text></g></g></svg>