<svg xmlns="http://www.w3.org/2000/svg" width="1220" height="133" viewBox="0 0 1220 133"><defs><mask id="i9uhb" width="2" height="2" x="-1" y="-1"><path fill="#fff" d="M175 32h115v96H175z"/><path d="M175 32h115v96H175l50-48z"/></mask><filter id="i9uha" width="144.4" height="125.4" x="161" y="18" filterUnits="userSpaceOnUse"><feOffset dx="1.4" dy="1.4" in="SourceGraphic" result="FeOffset1048Out"/><feGaussianBlur in="FeOffset1048Out" result="FeGaussianBlur1049Out" stdDeviation="1.6 1.6"/></filter><mask id="i9uhd" width="2" height="2" x="-1" y="-1"><path fill="#fff" d="M930 32h115v96H930z"/><path d="M1045 32H930v96h115l-50-48z"/></mask><filter id="i9uhc" width="144.4" height="125.4" x="916" y="18" filterUnits="userSpaceOnUse"><feOffset dx="1.4" dy="1.4" in="SourceGraphic" result="FeOffset1064Out"/><feGaussianBlur in="FeOffset1064Out" result="FeGaussianBlur1065Out" stdDeviation="1.6 1.6"/></filter><mask id="i9uhf" width="2" height="2" x="-1" y="-1"><path fill="#fff" d="M250 10h720v94H250z"/><path d="M250 10h720v94H250z"/></mask><filter id="i9uhe" width="787.1" height="161.1" x="220" y="-20" filterUnits="userSpaceOnUse"><feOffset dx="7.1" dy="7.1" in="SourceGraphic" result="FeOffset1090Out"/><feGaussianBlur in="FeOffset1090Out" result="FeGaussianBlur1091Out" stdDeviation="8 8"/></filter></defs><g><g><g filter="url(#i9uha)"><path fill="none" d="M175 32h115v96H175l50-48z" mask="url(&quot;#i9uhb&quot;)"/><path fill-opacity=".3" d="M175 32h115v96H175l50-48z"/></g><path fill="#fff1ce" d="M175 32h115v96H175l50-48z"/></g><g><g filter="url(#i9uhc)"><path fill="none" d="M1045 32H930v96h115l-50-48z" mask="url(&quot;#i9uhd&quot;)"/><path fill-opacity=".3" d="M1045 32H930v96h115l-50-48z"/></g><path fill="#fff1ce" d="M1045 32H930v96h115l-50-48z"/></g><g><path fill="#849092" d="M250 104h40v24z"/></g><g><path fill="#849092" d="M930 104h40l-40 24z"/></g><g><g filter="url(#i9uhe)"><path fill="none" d="M250 10h720v94H250z" mask="url(&quot;#i9uhf&quot;)"/><path fill-opacity=".3" d="M250 10h720v94H250z"/></g><path fill="#fff1ce" d="M250 10h720v94H250z"/></g><g><path fill="#fff1ce" d="M156 74a6 6 0 1 1 0 12 6 6 0 0 1 0-12z"/></g><g><path fill="#fff1ce" d="M106 74a6 6 0 1 1 0 12 6 6 0 0 1 0-12z"/></g><g><path fill="#fff1ce" d="M56 74a6 6 0 1 1 0 12 6 6 0 0 1 0-12z"/></g><g><path fill="#fff1ce" d="M6 74a6 6 0 1 1 0 12 6 6 0 0 1 0-12z"/></g><g><path fill="#fff1ce" d="M1214 74a6 6 0 1 1 0 12 6 6 0 0 1 0-12z"/></g><g><path fill="#fff1ce" d="M1164 74a6 6 0 1 1 0 12 6 6 0 0 1 0-12z"/></g><g><path fill="#fff1ce" d="M1114 74a6 6 0 1 1 0 12 6 6 0 0 1 0-12z"/></g><g><path fill="#fff1ce" d="M1064 74a6 6 0 1 1 0 12 6 6 0 0 1 0-12z"/></g></g></svg>